<?xml version="1.0" encoding="utf-8"?>
<!-- Generator: Adobe Illustrator 16.0.0, SVG Export Plug-In . SVG Version: 6.00 Build 0)  -->
<!DOCTYPE svg PUBLIC "-//W3C//DTD SVG 1.1//EN" "http://www.w3.org/Graphics/SVG/1.1/DTD/svg11.dtd">
<svg version="1.1" id="Layer_1" xmlns="http://www.w3.org/2000/svg" xmlns:xlink="http://www.w3.org/1999/xlink" x="0px" y="0px"
	 width="889.455px" height="792px" viewBox="0 0 889.455 792" enable-background="new 0 0 889.455 792" xml:space="preserve">
<path fill="#FFFFFF" stroke="#3B4246" stroke-miterlimit="10" d="M415.721,110.084c-39.297,0-74.478,17.948-97.772,46.074
	c-18.181,21.957-29.12,50.106-29.12,80.759v65.942h-16.907H217.93v16.894v213.851H596.57h16.914V302.859h-70.896v-65.942
	C542.589,166.975,485.657,110.084,415.721,110.084z M442.932,473.036h-54.446l14.459-56.621
	c-10.4-4.861-17.628-15.322-17.628-27.545c0-16.798,13.599-30.373,30.376-30.373c16.805,0,30.444,13.575,30.444,30.373
	c0,12.223-7.303,22.684-17.665,27.545L442.932,473.036z M503.062,302.859h-16.903H328.32v-65.942
	c0-19.761,6.682-37.952,17.809-52.606c15.972-21.052,41.182-34.739,69.592-34.739c48.147,0,87.342,39.202,87.342,87.345V302.859z"/>
</svg>
