<?xml version="1.0" encoding="utf-8"?>
<!-- Generator: Adobe Illustrator 16.0.0, SVG Export Plug-In . SVG Version: 6.00 Build 0)  -->
<!DOCTYPE svg PUBLIC "-//W3C//DTD SVG 1.1//EN" "http://www.w3.org/Graphics/SVG/1.1/DTD/svg11.dtd">
<svg version="1.1" id="Layer_1" xmlns="http://www.w3.org/2000/svg" xmlns:xlink="http://www.w3.org/1999/xlink" x="0px" y="0px"
	 width="889.455px" height="792px" viewBox="0 0 889.455 792" enable-background="new 0 0 889.455 792" xml:space="preserve">
<g>
	<polygon fill="#FFFFFF" stroke="#939598" stroke-miterlimit="10" points="547.833,594.904 244.008,594.904 253.92,606.111 
		262.347,615.663 557.366,615.663 578.13,615.663 589.53,615.663 598.884,615.663 598.884,159.71 598.884,120.208 578.13,100.834 
		578.13,140.966 578.13,594.904 557.366,594.904 	"/>
	<polygon fill="#FFFFFF" stroke="#939598" stroke-miterlimit="10" points="610.279,130.227 610.279,170.359 610.279,627.086 
		589.53,627.086 578.13,627.086 271.296,627.086 279.567,636.422 289.667,647.844 589.53,647.844 610.279,647.844 631.038,647.844 
		631.038,149.583 	"/>
	<path fill="#FFFFFF" stroke="#939598" stroke-miterlimit="10" d="M236.84,585.353h310.993h9.533h11.221V132.08V93.747v-6.638
		H227.189c0,0-23.079,10.361-26.452,23.708c-0.261,1.044-0.44,2.105-0.44,3.166v444.476c0,14.841,12.052,26.894,26.893,26.894
		H236.84z M247.498,245.551c0-22.845,18.694-41.535,41.526-41.535h205.36c22.842,0,41.527,18.69,41.527,41.535v45.799
		c0,22.845-18.686,41.517-41.527,41.517h-205.36c-22.832,0-41.526-18.672-41.526-41.517V245.551z"/>
	<path fill="#FFFFFF" stroke="#939598" stroke-miterlimit="10" d="M263.755,636.422l-18.492-20.759l-8.508-9.552l-8.153-9.156
		h-18.483l7.771,9.156l8.1,9.552l17.602,20.759l2.37,2.806c5.226,4.029,10.325,6.745,14.845,8.616
		c9.61,3.939,16.617,3.939,16.617,3.939l-3.503-3.939L263.755,636.422z"/>
</g>
</svg>
