<?xml version="1.0" encoding="utf-8"?>
<!-- Generator: Adobe Illustrator 16.0.0, SVG Export Plug-In . SVG Version: 6.00 Build 0)  -->
<!DOCTYPE svg PUBLIC "-//W3C//DTD SVG 1.1//EN" "http://www.w3.org/Graphics/SVG/1.1/DTD/svg11.dtd">
<svg version="1.1" id="Layer_1" xmlns="http://www.w3.org/2000/svg" xmlns:xlink="http://www.w3.org/1999/xlink" x="0px" y="0px"
	 width="889.455px" height="792px" viewBox="0 0 889.455 792" enable-background="new 0 0 889.455 792" xml:space="preserve">
<path fill="#FFFFFF" stroke="#939598" stroke-miterlimit="10" d="M272.768,522.241c78.147,29.926,123.043,14.963,123.043,0
	s-13.304-19.958-13.304-38.242c0-18.295,9.979-46.562,39.905-46.562c29.93,0,39.905,28.268,39.905,46.562
	c0,18.284-13.301,23.279-13.301,38.242s78.965,20.997,157.116-8.93c4.518-2.255,11.29-6.77,13.546-14.674
	c-6.772-73.395-16.333-103.566-31.296-103.566s-19.957,13.301-38.245,13.301c-18.289,0-46.553-9.972-46.553-39.905
	c0-29.926,28.264-39.905,46.553-39.905c18.288,0,23.282,13.3,38.245,13.3s33.559-54.371,16.619-136.794
	c-1.131-6.776-12.415-10.163-16.265-7.239c-78.147,29.93-123.043,14.963-123.043,0c0-14.963,13.303-19.955,13.303-38.243
	c0-18.285-9.979-46.555-39.904-46.555c-29.934,0-39.905,28.271-39.905,46.555c0,18.288,13.301,23.279,13.301,38.243
	c0,14.963-44.896,29.93-123.044,0c-14.142-6.31-23.395-3.278-18.769,9.883c29.93,78.151,14.963,123.043,0,123.043
	c-14.963,0-19.954-13.3-38.242-13.3s-46.559,9.975-46.559,39.901c0,29.93,28.271,39.908,46.559,39.908s23.279-13.3,38.242-13.3
	c14.963,0,29.93,44.892,0,123.041C267.398,511.057,265.715,517.615,272.768,522.241z"/>
</svg>
