<?xml version="1.0" encoding="utf-8"?>
<!-- Generator: Adobe Illustrator 16.0.0, SVG Export Plug-In . SVG Version: 6.00 Build 0)  -->
<!DOCTYPE svg PUBLIC "-//W3C//DTD SVG 1.1//EN" "http://www.w3.org/Graphics/SVG/1.1/DTD/svg11.dtd">
<svg version="1.1" id="Layer_1" xmlns="http://www.w3.org/2000/svg" xmlns:xlink="http://www.w3.org/1999/xlink" x="0px" y="0px"
	 width="889.455px" height="792px" viewBox="0 0 889.455 792" enable-background="new 0 0 889.455 792" xml:space="preserve">
<path fill="#FFFFFF" stroke="#6D6E71" stroke-miterlimit="10" d="M621.317,314.577c5.89-10.533,9.434-22.489,9.978-35.216
	c0.056-1.14,0.089-2.259,0.089-3.353c0-0.006,0-0.006,0-0.006c0-0.007,0-0.007,0-0.007c0-44.419-36.795-80.426-82.186-80.426
	H416.381c-0.036,0-0.064,0-0.094,0H283.468c-45.389,0-82.17,36.007-82.17,80.426c0,0,0,0,0,0.007c0,0,0,0,0,0.006
	c0,0,0,0.007,0,0.013c0.017,44.399,36.799,80.387,82.17,80.387h182.607c0,28.188,0,67.303,0,77.745
	c0,15.797,16.518,17.121,27.328,6.311c10.355-10.355,87.349-81.618,112.855-106.63c0.863-0.817,1.706-1.647,2.529-2.497
	c0.188-0.185,0.383-0.382,0.557-0.554c0.155-0.151,0.294-0.316,0.441-0.468c0.126-0.145,0.268-0.283,0.399-0.428
	C614.625,325.275,618.327,320.071,621.317,314.577z M381.496,276.752c0-19.242,15.597-34.841,34.846-34.841
	c19.238,0,34.837,15.599,34.837,34.841c0,19.249-15.599,34.847-34.837,34.847C397.093,311.6,381.496,296.001,381.496,276.752z
	 M484.708,276.752c0-19.242,15.605-34.841,34.844-34.841c19.245,0,34.845,15.599,34.845,34.841c0,19.249-15.6,34.847-34.845,34.847
	C500.313,311.6,484.708,296.001,484.708,276.752z M278.274,276.752c0-19.242,15.602-34.841,34.842-34.841
	c19.244,0,34.841,15.599,34.841,34.841c0,19.249-15.597,34.847-34.841,34.847C293.876,311.6,278.274,296.001,278.274,276.752z"/>
</svg>
