<?xml version="1.0" encoding="utf-8"?>
<!-- Generator: Adobe Illustrator 16.0.0, SVG Export Plug-In . SVG Version: 6.00 Build 0)  -->
<!DOCTYPE svg PUBLIC "-//W3C//DTD SVG 1.1//EN" "http://www.w3.org/Graphics/SVG/1.1/DTD/svg11.dtd">
<svg version="1.1" id="Layer_1" xmlns="http://www.w3.org/2000/svg" xmlns:xlink="http://www.w3.org/1999/xlink" x="0px" y="0px"
	 width="889.455px" height="792px" viewBox="0 0 889.455 792" enable-background="new 0 0 889.455 792" xml:space="preserve">
<g>
	<path fill="#FFFFFF" stroke="#939598" stroke-miterlimit="10" d="M582.734,103.587h-334.15c-54.566,0-98.956,44.417-98.956,98.98
		v334.153c0,54.547,44.39,98.949,98.956,98.949h334.15c54.562,0,98.964-44.402,98.964-98.949V202.567
		C681.698,148.005,637.297,103.587,582.734,103.587z M653.423,536.721c0,38.969-31.712,70.689-70.688,70.689h-334.15
		c-38.977,0-70.688-31.721-70.688-70.689V202.567c0-38.984,31.712-70.705,70.688-70.705h334.15c38.977,0,70.688,31.72,70.688,70.705
		V536.721z"/>
	<path fill="#FFFFFF" stroke="#939598" stroke-miterlimit="10" d="M578.522,224.956H375.42c-7.805,0-14.13,6.325-14.13,14.138
		c0,7.797,6.325,14.138,14.13,14.138h203.102c7.812,0,14.138-6.341,14.138-14.138C592.66,231.281,586.335,224.956,578.522,224.956z"
		/>
	<path fill="#FFFFFF" stroke="#939598" stroke-miterlimit="10" d="M578.522,353.338H375.42c-7.805,0-14.13,6.325-14.13,14.122
		c0,7.812,6.325,14.153,14.13,14.153h203.102c7.812,0,14.138-6.341,14.138-14.153C592.66,359.663,586.335,353.338,578.522,353.338z"
		/>
	<path fill="#FFFFFF" stroke="#939598" stroke-miterlimit="10" d="M578.522,481.705H375.42c-7.805,0-14.13,6.34-14.13,14.137
		c0,7.812,6.325,14.139,14.13,14.139h203.102c7.812,0,14.138-6.326,14.138-14.139C592.66,488.045,586.335,481.705,578.522,481.705z"
		/>
	<path fill="#FFFFFF" stroke="#939598" stroke-miterlimit="10" d="M329.438,242.585c-7.812,0-14.138,6.341-14.138,14.138v6.544
		h-48.366v-36.949c0-7.812-6.329-14.138-14.142-14.138c-7.805,0-14.13,6.325-14.13,14.138v51.102c0,7.797,6.325,14.138,14.13,14.138
		h76.646c7.812,0,14.138-6.341,14.138-14.138v-20.697C343.575,248.926,337.25,242.585,329.438,242.585z"/>
	<path fill="#FFFFFF" stroke="#939598" stroke-miterlimit="10" d="M329.438,315.011h-76.646c-7.805,0-14.13,6.325-14.13,14.138
		v76.654c0,7.797,6.325,14.138,14.13,14.138h76.646c7.812,0,14.138-6.341,14.138-14.138v-76.654
		C343.575,321.336,337.25,315.011,329.438,315.011z M315.3,391.665h-48.366v-48.394H315.3V391.665z"/>
	<path fill="#FFFFFF" stroke="#939598" stroke-miterlimit="10" d="M329.438,443.378h-76.646c-7.805,0-14.13,6.325-14.13,14.138
		v76.653c0,7.812,6.325,14.122,14.13,14.122h76.646c7.812,0,14.138-6.31,14.138-14.122v-76.653
		C343.575,449.703,337.25,443.378,329.438,443.378z M315.3,520.047h-48.366v-48.394H315.3V520.047z"/>
	<path fill="#FFFFFF" stroke="#939598" stroke-miterlimit="10" d="M344.377,135.98c-7.229-2.975-15.492,0.47-18.455,7.688
		l-26.753,64.864l-13.41-30.248c-3.163-7.124-11.507-10.349-18.651-7.187c-7.147,3.163-10.364,11.508-7.198,18.646l26.812,60.465
		c2.262,5.104,7.335,8.392,12.92,8.392c0.059,0,0.121,0,0.188,0c5.652-0.079,10.717-3.523,12.877-8.736l39.349-95.426
		C355.032,147.222,351.595,138.971,344.377,135.98z"/>
</g>
<g>
	<path fill="#939598" d="M474.585,219.158v-7.102c-4.08-0.07-8.299-1.336-10.76-3.094l1.688-4.711
		c2.531,1.687,6.188,3.024,10.125,3.024c4.993,0,8.369-2.884,8.369-6.892c0-3.867-2.743-6.258-7.946-8.368
		c-7.174-2.813-11.604-6.048-11.604-12.166c0-5.836,4.149-10.267,10.619-11.321v-7.103h4.358v6.821
		c4.22,0.14,7.104,1.266,9.143,2.46l-1.759,4.642c-1.477-0.843-4.359-2.391-8.86-2.391c-5.413,0-7.454,3.235-7.454,6.048
		c0,3.656,2.604,5.485,8.72,8.016c7.243,2.953,10.9,6.61,10.9,12.868c0,5.555-3.867,10.759-11.11,11.955v7.313H474.585z"/>
</g>
</svg>
