<?xml version="1.0" encoding="utf-8"?>
<!-- Generator: Adobe Illustrator 16.0.0, SVG Export Plug-In . SVG Version: 6.00 Build 0)  -->
<!DOCTYPE svg PUBLIC "-//W3C//DTD SVG 1.1//EN" "http://www.w3.org/Graphics/SVG/1.1/DTD/svg11.dtd">
<svg version="1.1" id="Layer_1" xmlns="http://www.w3.org/2000/svg" xmlns:xlink="http://www.w3.org/1999/xlink" x="0px" y="0px"
	 width="889.455px" height="792px" viewBox="0 0 889.455 792" enable-background="new 0 0 889.455 792" xml:space="preserve">
<g>
	<path fill="#FFFFFF" stroke="#6D6E71" stroke-miterlimit="10" d="M417.639,83.425c-140.745,0-254.833,114.107-254.833,254.843
		s114.087,254.829,254.833,254.829c140.731,0,254.839-114.094,254.839-254.829S558.37,83.425,417.639,83.425z M417.639,555.541
		c-120.005,0-217.29-97.275-217.29-217.273s97.285-217.287,217.29-217.287c120.008,0,217.283,97.289,217.283,217.287
		S537.646,555.541,417.639,555.541z"/>
	<path fill="#FFFFFF" stroke="#6D6E71" stroke-miterlimit="10" d="M417.639,450.322c-5.518,0-9.979,3.705-9.979,8.303v36.477
		c0,4.599,4.461,8.303,9.979,8.303c5.504,0,9.979-3.704,9.979-8.303v-36.477C427.617,454.027,423.143,450.322,417.639,450.322z"/>
	<path fill="#FFFFFF" stroke="#6D6E71" stroke-miterlimit="10" d="M417.639,226.213c5.504,0,9.979-3.719,9.979-8.316v-36.463
		c0-4.598-4.475-8.316-9.979-8.316c-5.518,0-9.979,3.718-9.979,8.316v36.463C407.66,222.494,412.121,226.213,417.639,226.213z"/>
	<path fill="#FFFFFF" stroke="#6D6E71" stroke-miterlimit="10" d="M574.477,328.285h-36.474c-4.595,0-8.315,4.479-8.315,9.982
		s3.721,9.969,8.315,9.969h36.474c4.591,0,8.296-4.465,8.296-9.969S579.067,328.285,574.477,328.285z"/>
	<path fill="#FFFFFF" stroke="#6D6E71" stroke-miterlimit="10" d="M297.268,328.285h-36.463c-4.588,0-8.323,4.479-8.323,9.982
		s3.735,9.969,8.323,9.969h36.463c4.598,0,8.312-4.465,8.312-9.969S301.865,328.285,297.268,328.285z"/>
	<path fill="#FFFFFF" stroke="#6D6E71" stroke-miterlimit="10" d="M417.639,134.441c-112.395,0-203.819,91.438-203.819,203.826
		c0,112.389,91.424,203.812,203.819,203.812c112.382,0,203.81-91.424,203.81-203.812
		C621.448,225.879,530.021,134.441,417.639,134.441z M417.639,529.953c-105.705,0-191.688-85.987-191.688-191.686
		s85.984-191.685,191.688-191.685c105.691,0,191.682,85.987,191.682,191.685S523.33,529.953,417.639,529.953z"/>
	<path fill="#FFFFFF" stroke="#6D6E71" stroke-miterlimit="10" d="M404.845,304.67L269.7,391.696l158.687,0.12h2.049L565.58,304.79
		l-158.69-0.106L404.845,304.67z M524.359,316.891l-97.488,62.784l-0.327-1.105l-1.009,1.679l-3.462-14.007
		c4.608-1.133,8.783-4.024,11.432-8.409c5.294-8.756,2.479-20.164-6.277-25.455c-4.385-2.652-9.419-3.265-14.03-2.132l-3.312-13.434
		L524.359,316.891z"/>
</g>
</svg>
