<?xml version="1.0" encoding="utf-8"?>
<!-- Generator: Adobe Illustrator 16.0.0, SVG Export Plug-In . SVG Version: 6.00 Build 0)  -->
<!DOCTYPE svg PUBLIC "-//W3C//DTD SVG 1.1//EN" "http://www.w3.org/Graphics/SVG/1.1/DTD/svg11.dtd">
<svg version="1.1" id="Layer_1" xmlns="http://www.w3.org/2000/svg" xmlns:xlink="http://www.w3.org/1999/xlink" x="0px" y="0px"
	 width="889.455px" height="792px" viewBox="0 0 889.455 792" enable-background="new 0 0 889.455 792" xml:space="preserve">
<g>
	<path fill="#FFFFFF" stroke="#808285" stroke-miterlimit="10" d="M576.04,67.957H256.787c-52.126,0-94.541,42.414-94.541,94.547
		v319.243c0,52.134,42.414,94.548,94.541,94.548H576.04c52.13,0,94.544-42.414,94.544-94.548V162.504
		C670.584,110.371,628.17,67.957,576.04,67.957z M643.569,481.747c0,37.243-30.297,67.537-67.529,67.537H256.787
		c-37.236,0-67.529-30.294-67.529-67.537V162.504c0-37.243,30.293-67.536,67.529-67.536H576.04
		c37.232,0,67.529,30.293,67.529,67.536V481.747z"/>
	<path fill="#FFFFFF" stroke="#808285" stroke-miterlimit="10" d="M572.014,306.549H377.97c-7.459,0-13.507,6.045-13.507,13.501
		c0,7.465,6.048,13.511,13.507,13.511h194.044c7.458,0,13.507-6.045,13.507-13.511C585.521,312.594,579.472,306.549,572.014,306.549
		z"/>
	<path fill="#FFFFFF" stroke="#808285" stroke-miterlimit="10" d="M572.014,429.2H377.97c-7.459,0-13.507,6.049-13.507,13.508
		c0,7.455,6.048,13.504,13.507,13.504h194.044c7.458,0,13.507-6.049,13.507-13.504C585.521,435.249,579.472,429.2,572.014,429.2z"/>
	<path fill="#FFFFFF" stroke="#808285" stroke-miterlimit="10" d="M334.036,200.742c-7.466,0-13.511,6.042-13.511,13.504v6.263
		H274.32v-35.31c0-7.458-6.048-13.504-13.51-13.504c-7.456,0-13.504,6.045-13.504,13.504v48.817c0,7.456,6.048,13.507,13.504,13.507
		h73.226c7.455,0,13.504-6.052,13.504-13.507v-19.771C347.54,206.783,341.491,200.742,334.036,200.742z"/>
	<path fill="#FFFFFF" stroke="#808285" stroke-miterlimit="10" d="M334.036,269.938H260.81c-7.456,0-13.504,6.049-13.504,13.508
		v73.223c0,7.458,6.048,13.507,13.504,13.507h73.226c7.455,0,13.504-6.048,13.504-13.507v-73.223
		C347.54,275.986,341.491,269.938,334.036,269.938z M320.525,343.161H274.32v-46.212h46.205V343.161z"/>
	<path fill="#FFFFFF" stroke="#808285" stroke-miterlimit="10" d="M334.036,392.583H260.81c-7.456,0-13.504,6.048-13.504,13.51
		v73.227c0,7.455,6.048,13.504,13.504,13.504h73.226c7.455,0,13.504-6.049,13.504-13.504v-73.227
		C347.54,398.631,341.491,392.583,334.036,392.583z M320.525,465.809H274.32v-46.212h46.205V465.809z"/>
	<path fill="#FFFFFF" stroke="#808285" stroke-miterlimit="10" d="M348.305,98.893c-6.905-2.842-14.791,0.437-17.629,7.332
		l-33.25,80.818l-5.12-47.728c-3.022-6.82-10.997-9.897-17.821-6.871c-6.823,3.022-9.897,10.997-6.871,17.82l25.607,57.749
		c2.165,4.891,7.008,8.033,12.346,8.033c0.062,0,0.12,0,0.178-0.007c5.403-0.065,10.249-3.351,12.309-8.347l37.592-91.166
		C358.486,109.63,355.2,101.73,348.305,98.893z"/>
</g>
<g>
	<path fill="#FFFFFF" stroke="#808285" stroke-miterlimit="10" d="M527.462,176.459H416.436c-1.844,0-3.354,1.506-3.354,3.351
		v64.025c0,1.844,1.509,3.351,3.354,3.351h39.449c1.845,0,3.354-1.506,3.354-3.351v-29.433c0-1.844,0-4.197,0-5.225
		c0-1.031,0-2.421,0-3.091s1.506-1.216,3.35-1.216h18.719c1.845,0,3.354,0.546,3.354,1.216s0,2.06,0,3.091c0,1.028,0,3.381,0,5.225
		v29.433c0,1.844,1.509,3.351,3.354,3.351h39.446c1.844,0,3.354-1.506,3.354-3.351V179.81
		C530.815,177.965,529.306,176.459,527.462,176.459z M437.149,221.346c0,1.844-1.51,3.354-3.354,3.354h-4.798
		c-1.845,0-3.354-1.509-3.354-3.354v-6.943c0-1.844,1.509-3.35,3.354-3.35h4.798c1.845,0,3.354,1.506,3.354,3.35V221.346z
		 M437.149,203.948c0,1.845-1.51,3.354-3.354,3.354h-4.798c-1.845,0-3.354-1.509-3.354-3.354v-6.407
		c0-1.844,1.509-3.354,3.354-3.354h4.798c1.845,0,3.354,1.51,3.354,3.354V203.948z M452.405,221.346c0,1.844-1.51,3.354-3.354,3.354
		h-4.798c-1.845,0-3.354-1.509-3.354-3.354v-6.943c0-1.844,1.509-3.35,3.354-3.35h4.798c1.845,0,3.354,1.506,3.354,3.35V221.346z
		 M452.405,203.948c0,1.845-1.51,3.354-3.354,3.354h-4.798c-1.845,0-3.354-1.509-3.354-3.354v-6.407
		c0-1.844,1.509-3.354,3.354-3.354h4.798c1.845,0,3.354,1.51,3.354,3.354V203.948z M503.002,221.346c0,1.844-1.51,3.354-3.354,3.354
		h-4.802c-1.841,0-3.351-1.509-3.351-3.354v-6.943c0-1.844,1.51-3.35,3.351-3.35h4.802c1.845,0,3.354,1.506,3.354,3.35V221.346z
		 M503.002,203.948c0,1.845-1.51,3.354-3.354,3.354h-4.802c-1.841,0-3.351-1.509-3.351-3.354v-6.407c0-1.844,1.51-3.354,3.351-3.354
		h4.802c1.845,0,3.354,1.51,3.354,3.354V203.948z M518.258,221.346c0,1.844-1.51,3.354-3.354,3.354h-4.798
		c-1.845,0-3.354-1.509-3.354-3.354v-6.943c0-1.844,1.51-3.35,3.354-3.35h4.798c1.845,0,3.354,1.506,3.354,3.35V221.346z
		 M518.258,203.948c0,1.845-1.51,3.354-3.354,3.354h-4.798c-1.845,0-3.354-1.509-3.354-3.354v-6.407c0-1.844,1.51-3.354,3.354-3.354
		h4.798c1.845,0,3.354,1.51,3.354,3.354V203.948z"/>
	<path fill="#FFFFFF" stroke="#808285" stroke-miterlimit="10" d="M416.436,170.264h111.026c1.844,0,2.158-0.922,0.696-2.049
		l-53.555-41.379c-0.73-0.563-1.693-0.851-2.653-0.851c-0.963,0-1.926,0.287-2.653,0.851l-22.445,17.339
		c-0.502,0.386-0.974,0.574-1.376,0.574c-0.766,0-1.277-0.67-1.277-1.879v-13.397c0-1.848-1.514-3.354-3.354-3.354h-9.785
		c-1.848,0-3.357,1.506-3.357,3.354v26.14c0,1.844-1.188,4.276-2.65,5.403l-9.317,7.199
		C414.277,169.342,414.591,170.264,416.436,170.264z"/>
</g>
</svg>
