<?xml version="1.0" encoding="utf-8"?>
<!-- Generator: Adobe Illustrator 16.0.0, SVG Export Plug-In . SVG Version: 6.00 Build 0)  -->
<!DOCTYPE svg PUBLIC "-//W3C//DTD SVG 1.1//EN" "http://www.w3.org/Graphics/SVG/1.1/DTD/svg11.dtd">
<svg version="1.1" id="Layer_1" xmlns="http://www.w3.org/2000/svg" xmlns:xlink="http://www.w3.org/1999/xlink" x="0px" y="0px"
	 width="889.455px" height="792px" viewBox="0 0 889.455 792" enable-background="new 0 0 889.455 792" xml:space="preserve">
<g>
	<path fill="#FFFFFF" stroke="#939598" stroke-miterlimit="10" d="M323.628,473.539c0.826,2.455,3.123,4.115,5.711,4.115
		c72.308,0,147.066,0,221.234,0.188c0.005,0,0.019,0,0.019,0c3.32,0,6.014-2.689,6.022-6.014c0.009-3.32-2.684-6.023-6.004-6.031
		c-72.708-0.182-145.964-0.188-216.923-0.188c-8.445-25.564-15.916-50.432-23.797-76.687c-4.157-13.829-8.452-28.135-12.875-42.44
		c-3.573-12.859-7.237-24.754-12.232-39.747c-9.805-32.442-29.506-96.025-29.704-96.662c-0.785-2.529-3.116-4.244-5.754-4.244h-11.7
		c-1.023-6.182-6.655-10.935-13.456-10.935h-65.149c-7.528,0-13.645,5.809-13.645,12.945v8.093c0,7.137,6.116,12.941,13.645,12.941
		h65.149c6.816,0,12.469-4.785,13.467-10.999h7.246c4.59,14.833,20.083,64.916,28.396,92.422c0.014,0.055,0.034,0.109,0.052,0.159
		c4.954,14.865,8.574,26.628,12.106,39.333c0.016,0.059,0.034,0.114,0.05,0.173c4.41,14.274,8.713,28.593,12.869,42.426
		C306.324,418.916,314.562,446.35,323.628,473.539z"/>
	<path fill="#FFFFFF" stroke="#939598" stroke-miterlimit="10" d="M329.246,480.115c-17.283,0-31.352,14.057-31.352,31.342
		c0,17.289,14.069,31.35,31.352,31.35c17.288,0,31.348-14.061,31.348-31.35C360.594,494.172,346.533,480.115,329.246,480.115z"/>
	<path fill="#FFFFFF" stroke="#939598" stroke-miterlimit="10" d="M553.894,480.115c-17.285,0-31.345,14.057-31.345,31.342
		c0,17.289,14.06,31.35,31.345,31.35c17.291,0,31.351-14.061,31.351-31.35C585.244,494.172,571.185,480.115,553.894,480.115z"/>
	<path fill="#FFFFFF" stroke="#939598" stroke-miterlimit="10" d="M385.609,342.443c-1.021,2.033-0.818,4.462,0.537,6.295
		l61.757,83.543c1.139,1.541,2.934,2.441,4.849,2.441c1.906,0,3.705-0.9,4.84-2.441l61.759-83.543
		c1.355-1.833,1.556-4.262,0.537-6.295c-1.02-2.024-3.103-3.312-5.372-3.312h-25.997V213.175c0-3.33-2.692-6.018-6.018-6.018
		h-59.505c-3.32,0-6.019,2.688-6.019,6.018v125.956h-25.991C388.714,339.131,386.636,340.418,385.609,342.443z"/>
	<path fill="#FFFFFF" stroke="#939598" stroke-miterlimit="10" d="M605.399,262.193H501.364v64.097h13.151
		c7.164,0,13.614,3.971,16.844,10.375c3.221,6.391,2.584,13.942-1.679,19.706l-61.759,83.547c-3.543,4.795-9.218,7.652-15.17,7.652
		c-5.961,0-11.632-2.857-15.177-7.652l-61.759-83.542c-4.267-5.768-4.904-13.319-1.67-19.719c3.221-6.396,9.671-10.367,16.84-10.367
		h13.15v-64.097H300.095c-7.521,0-13.646,5.804-13.646,12.95v8.083c0,7.137,6.125,12.946,13.646,12.946h4.337l45.833,155.824
		c0.753,2.561,3.1,4.32,5.777,4.32h193.412c2.675,0,5.027-1.76,5.777-4.32l45.834-155.824h4.334c7.52,0,13.651-5.809,13.651-12.946
		v-8.083C619.051,267.997,612.919,262.193,605.399,262.193z"/>
</g>
</svg>
