<?xml version="1.0" encoding="utf-8"?>
<!-- Generator: Adobe Illustrator 16.0.0, SVG Export Plug-In . SVG Version: 6.00 Build 0)  -->
<!DOCTYPE svg PUBLIC "-//W3C//DTD SVG 1.1//EN" "http://www.w3.org/Graphics/SVG/1.1/DTD/svg11.dtd">
<svg version="1.1" id="Layer_1" xmlns="http://www.w3.org/2000/svg" xmlns:xlink="http://www.w3.org/1999/xlink" x="0px" y="0px"
	 width="889.455px" height="792px" viewBox="0 0 889.455 792" enable-background="new 0 0 889.455 792" xml:space="preserve">
<g>
	<path fill="#FFFFFF" stroke="#A7A9AC" stroke-miterlimit="10" d="M458.654,589.992c-1.047,1.617-2.076,3.262-3.146,4.814
		c-3.417,5.161-6.956,9.881-10.602,14.145c-1.79,0.233-3.692,0.402-5.529,0.608c-3.24,0.373-6.451,0.747-9.793,1.102
		c1.687-3.168,3.309-6.581,4.922-10.059c2.117-4.599,4.179-9.376,6.096-14.462c0.346-0.926,0.724-1.889,1.057-2.87
		c6.015-0.607,11.835-1.384,17.659-2.188c0.448-6.104,0.938-12.686,1.538-20.221c-4.021,0.506-8.064,0.945-12.135,1.337
		c0.322-1.122,0.645-2.289,0.967-3.411c-5.538-0.104-11.139-0.347-16.794-0.683c-0.425,1.87-0.865,3.796-1.327,5.618
		c-4.796,0.327-9.751,0.514-14.654,0.748c-3.529,0.177-6.988,0.438-10.555,0.57c0.566-3.002,1.145-6.059,1.725-9.181
		c-5.212-0.627-10.433-1.327-15.668-2.15c-0.374,3.253-0.753,6.432-1.136,9.545c-0.089,0.691-0.163,1.43-0.243,2.113
		c-0.042,0-0.089,0-0.112,0c-2.851,0.056-5.726,0.056-8.549,0.056c-2.65,0-5.314-0.037-7.932-0.046c-0.257,0-0.519-0.01-0.776-0.01
		c-0.594-4.927-1.197-10.088-1.795-15.351c-5.656-1.141-11.288-2.412-16.926-3.776c1.122,6.497,2.249,12.778,3.398,18.753
		c-1.93-0.065-3.8-0.234-5.716-0.347c-5.614-0.261-11.213-0.569-16.71-0.971c-0.917-0.065-1.875-0.094-2.786-0.169
		c-1.874-7.413-3.631-15.238-5.258-23.391c-0.089-0.477-0.187-0.963-0.285-1.42c-6.469-2.011-12.91-4.161-19.333-6.489
		c0.486,2.169,0.968,4.311,1.477,6.423c1.917,8.086,3.992,15.874,6.208,23.324c-2.164-0.232-4.277-0.522-6.413-0.757
		c-6.193-0.738-12.289-1.523-18.253-2.402c-0.715-0.103-1.449-0.215-2.16-0.317c-3.352-7.47-6.493-15.397-9.423-23.699
		c-1.879-5.3-3.65-10.807-5.343-16.416c-7.853-3.608-15.593-7.45-23.198-11.546c0.29,1.028,0.622,2.011,0.916,3.039
		c2.127,7.263,4.422,14.368,6.867,21.212c3.005,8.282,6.208,16.248,9.666,23.876c-2.617-0.505-5.179-1.065-7.735-1.608
		c-4.88-1.027-9.69-2.095-14.355-3.253c-8.152-14.061-15.449-29.69-21.693-46.426c-0.771-2.065-1.585-4.084-2.328-6.188
		c1.038,0.354,2.141,0.691,3.197,1.047c6.951,2.346,14.178,4.534,21.605,6.581c0.467,0.122,0.92,0.263,1.388,0.383
		c-19.94-10.919-38.932-23.521-56.489-37.918c-0.588-0.262-1.149-0.541-1.738-0.784c-5.357-2.347-10.503-4.787-15.346-7.329
		c-2.08-1.066-4.071-2.113-6.011-3.207c-1.146-4.18-2.197-8.414-3.141-12.686c-9.241-9.452-17.87-19.521-25.811-30.178
		c0.598,5.198,1.271,10.367,2.117,15.473c0.589,3.636,1.234,7.216,1.958,10.788c-0.481-0.394-0.902-0.786-1.37-1.169
		c-7.062-5.806-12.718-11.602-16.874-16.94c-1.926-11.405-3.118-23.081-3.538-34.963c-7.531-12.947-14.089-26.69-19.524-41.171
		c-1.221,10.433-1.88,21.043-1.847,31.786c-0.046,15.668,1.323,31.074,3.856,46.061c1.099,6.432,2.417,12.778,3.94,19.024
		c1.837,7.609,3.964,15.06,6.414,22.352c9.078,27.271,22.048,52.23,37.474,73.508c0.832,1.169,1.734,2.206,2.571,3.348
		c30.378,41.161,68.717,68.824,103.475,84.959c18.084,8.104,34.805,13.598,49.753,17.281c12.817,3.646,26.036,6.395,39.554,8.188
		c2.903,0.375,5.801,0.729,8.718,1.029c4.375,0.43,8.773,0.747,13.186,0.99c3.866,0.188,7.741,0.337,11.643,0.373
		c1.104,0,2.197,0.057,3.301,0.057c2.939,0,5.842-0.186,8.754-0.279c0.729-0.02,1.458-0.02,2.188-0.057
		c44.087-1.72,85.624-13.611,122.092-33.622c18.467-9.77,37.538-22.839,55.591-39.255c12.036-10.928,23.577-23.418,34.202-37.535
		c-48.422,33.451-98.79,61.805-151.793,85.867C457.005,613.503,457.785,602.032,458.654,589.992z M165.783,517.878
		c-1.589-1.066-3.192-2.132-4.624-3.179c-13.737-22.307-24.25-46.837-30.873-72.9c4.375,4.974,9.708,10.068,15.757,15.08
		c0.921,0.793,1.804,1.551,2.781,2.317c1.646,6.096,3.506,12.078,5.492,17.949c2.473,7.348,5.296,14.472,8.274,21.446
		c3.66,8.544,7.558,16.873,11.882,24.755C171.317,521.523,168.465,519.691,165.783,517.878z M196.483,559.797
		c-5.735-5.937-11.312-12.042-16.491-18.492c2.576,1.552,5.282,3.029,8.11,4.515c3.436,5.133,7.067,10.022,10.747,14.753
		c2.159,2.776,4.318,5.544,6.525,8.18C202.298,565.872,199.414,562.815,196.483,559.797z M213.32,540.36
		c-2.772-0.963-5.487-1.954-8.124-2.944c-11.685-18.165-21.908-38.525-29.723-60.682c6.034,3.365,12.559,6.554,19.328,9.628
		c1.271,0.6,2.478,1.197,3.777,1.769c0.935,2.944,1.973,5.804,2.987,8.703c2.556,7.301,5.254,14.461,8.217,21.37
		c3.707,8.676,7.703,17.015,11.971,24.951C218.887,542.239,216.063,541.323,213.32,540.36z M254.491,593.881
		c-0.168-0.065-0.336-0.121-0.515-0.178c-8.516-7.16-16.855-15.388-24.886-24.521c-1.126-1.272-2.225-2.628-3.328-3.945
		c-1.294-1.533-2.608-3.02-3.889-4.6c0.547,0.195,1.136,0.373,1.674,0.579c3.683,1.31,7.437,2.6,11.312,3.824
		c1.468,2.216,2.959,4.375,4.478,6.496c5.866,8.339,12.06,16.089,18.529,23.082c0.136,0.15,0.285,0.318,0.43,0.478
		C256.95,594.694,255.725,594.283,254.491,593.881z M288.655,603.164c-1.402-1.242-2.776-2.599-4.174-3.927
		c-8.175-7.722-16.051-16.687-23.488-26.849c2.627,0.627,5.38,1.168,8.049,1.757c3.468,0.777,6.862,1.6,10.405,2.281
		c0.43,0.795,0.888,1.533,1.332,2.31c4.515,7.872,9.334,15.22,14.378,21.932c0.71,0.926,1.407,1.889,2.117,2.796
		c0.468,0.588,0.888,1.141,1.355,1.691C295.204,604.52,291.872,603.885,288.655,603.164z M322.039,608.811
		c-0.855-0.131-1.771-0.206-2.627-0.337c-3.52-4.169-6.885-8.684-10.232-13.667c-3.164-4.608-6.207-9.555-9.156-14.734
		c4.632,0.702,9.447,1.244,14.209,1.842c1.706,0.216,3.375,0.469,5.081,0.674c1.243,0.141,2.412,0.337,3.636,0.477
		c0.379,1.01,0.762,2.075,1.141,3.076c2.417,6.385,5.053,12.256,7.778,17.855c1.005,2.122,2.01,4.329,3.075,6.311
		C330.523,609.848,326.251,609.335,322.039,608.811z M344.392,631.593c1.612,0.159,3.234,0.337,4.866,0.459
		c1.702,2.019,3.375,3.884,5.123,5.566C351.202,635.992,347.827,633.996,344.392,631.593z M349.309,611.476
		c-3.65-7.797-7.147-16.838-10.265-26.887c7.718,0.598,15.654,1.064,23.605,1.309c1.552,6.908,3.062,13.274,4.548,19.136
		c0.552,2.197,1.098,4.339,1.631,6.367c0.094,0.346,0.183,0.72,0.281,1.065c-0.146-0.01-0.276-0.01-0.421-0.01
		c-3.487-0.112-6.853-0.336-10.288-0.522C355.357,611.793,352.263,611.699,349.309,611.476z M367.805,639.095
		c-1.103-1.009-2.248-2.149-3.417-3.454c-0.757-0.804-1.491-1.729-2.249-2.673c4.342,0.28,8.741,0.401,13.187,0.494
		c0.799,2.263,1.514,4.344,2.234,6.119C374.297,639.488,371.002,639.319,367.805,639.095z M382.328,633.612v-0.131h0.047
		L382.328,633.612z M384.946,612.662c-1.169,0-2.342,0.019-3.52,0c-0.336,0-0.678,0.028-1.038,0h-0.631
		c-1.014-7.722-2.197-16.574-3.473-26.419c1.991,0.038,4.02,0.038,6.011,0.038c2.062,0,4.077,0,6.114-0.038
		c-0.846,6.581-1.659,12.694-2.408,18.352C385.637,607.39,385.282,610.119,384.946,612.662z M400.324,635.641
		c-1.262,1.436-2.528,2.669-3.768,3.754c-3.126,0.149-6.235,0.225-9.409,0.225c0.669-1.776,1.393-3.819,2.197-6.138
		c4.478-0.075,8.83-0.233,13.163-0.458C401.782,633.958,401.025,634.837,400.324,635.641z M410.331,637.618
		c1.692-1.626,3.38-3.454,5.025-5.427c1.612-0.178,3.207-0.337,4.819-0.477C416.759,634.033,413.449,636.029,410.331,637.618z
		 M415.3,611.746c-3.721,0.206-7.582,0.337-11.391,0.486c-2.786,0.111-5.521,0.271-8.372,0.346c0.758-2.711,1.491-5.6,2.235-8.601
		c1.402-5.554,2.809-11.545,4.23-17.996c7.974-0.263,15.846-0.673,23.6-1.271C422.452,594.844,418.932,603.885,415.3,611.746z"/>
	<path fill="#FFFFFF" stroke="#A7A9AC" stroke-miterlimit="10" d="M662.2,405.04c0.936-9.171,1.469-18.463,1.44-27.858
		c0.168-61.233-20.829-118.428-51.697-160.992c-19.806-27.789-43.336-49.543-67.138-65.968
		c-45.187-31.917-100.361-50.669-159.86-50.669c-30.154,0-59.176,4.81-86.316,13.677c-12.303,3.539-25.643,8.273-39.838,14.654
		c-11.349,5.287-23.054,11.789-34.791,19.553c-2.497,1.056-5.456,2.669-8.821,5.123c-1.444,0.968-3.127,2.492-4.698,4.418
		c-13.116,9.923-26.002,21.515-38.119,34.888c-6.815,7.54-13.406,15.617-19.618,24.325c-7.17,9.895-13.78,20.595-19.744,31.935
		c-1.038-2.439-2.005-4.973-2.996-7.451c-9.653-24.232-16.903-51.053-21.128-80.823c-4.777,27.975-6.301,54.32-5.053,79.075
		c10.466,208.192,219.13,302.585,375.971,301.191c-2.226,28.205-3.206,42.35-5.053,70.601
		c93.494-42.433,178.764-98.057,259.555-171.958c6.691-6.122,13.358-12.303,19.967-18.659
		C722.63,417.146,692.014,412.145,662.2,405.04z M631.742,301.71c5.068,16.855,8.414,34.637,9.984,52.903
		c0.253,2.917,0.562,5.815,0.712,8.76c-3.665,5.151-8.947,10.601-15.8,15.968c0-0.711,0.037-1.44,0.037-2.16
		c0.057-21.446-2.15-42.48-6.245-62.626c3.497-3.131,6.488-6.348,8.993-9.573C630.266,303.898,631.033,302.795,631.742,301.71z
		 M603.416,238.196c10.004,16.22,18.576,34.207,25.13,53.417c-0.422,0.599-0.86,1.225-1.309,1.861
		c-0.412,0.551-0.992,1.094-1.459,1.636c-2.15,2.552-4.73,5.123-7.955,7.694c-4.946-20.352-11.878-39.694-20.33-57.559
		c0.576-0.57,1.067-1.159,1.614-1.739C600.687,241.777,602.159,240.029,603.416,238.196z M565.99,265.812
		c5.487-2.655,10.601-5.404,15.289-8.284c0.364,0.823,0.678,1.683,1.023,2.506c7.283,17.042,13.241,35.253,17.318,54.52
		c-0.706,0.365-1.496,0.729-2.197,1.094c-5.534,2.87-11.527,5.665-18.074,8.339C576.464,303.702,571.913,284.182,565.99,265.812z
		 M554.93,180.039c14.758,13.345,28.888,28.976,41.316,47.206c0.753,1.103,1.515,2.207,2.272,3.342
		c-1.263,1.636-2.975,3.272-4.97,4.927c-0.22,0.177-0.388,0.346-0.611,0.523c-0.936-1.786-1.902-3.459-2.861-5.208
		c-1.158-2.136-2.304-4.333-3.511-6.404c-9.455-16.477-20.275-31.131-31.803-44.083L554.93,180.039z M542.146,192.926
		c10.915,13.453,20.992,28.841,29.838,45.616c1.354,2.543,2.747,5.011,4.027,7.638c-1.673,0.794-3.478,1.589-5.277,2.366
		c-2.977,1.317-6.057,2.608-9.302,3.852c-7.081-19.202-15.599-36.936-25.217-52.96c-0.061-0.112-0.126-0.252-0.201-0.374
		c-0.359-0.551-0.668-1.182-1.015-1.752C537.439,195.908,539.852,194.44,542.146,192.926z M515.933,256.398
		c-4.207-16.126-9.198-31.458-14.929-45.612c6.114-1.813,11.946-3.795,17.533-5.959c1.369,2.398,2.673,4.894,3.991,7.376
		c7.685,14.275,14.607,29.845,20.366,46.551c-1.491,0.467-3.086,0.916-4.61,1.355c-5.973,1.767-12.193,3.468-18.729,5.066
		c-0.439,0.122-0.859,0.234-1.284,0.337C517.536,262.428,516.723,259.417,515.933,256.398z M524.128,294.335
		c-0.679-3.964-1.37-7.9-2.137-11.798c9.096-2.702,17.696-5.609,25.671-8.75c0.897,3.066,1.701,6.189,2.505,9.292
		c4.071,15.397,7.235,31.439,9.283,48.108c-0.244,0.075-0.51,0.168-0.758,0.234c-6.3,2.038-12.979,3.945-19.842,5.787
		c-3.084,0.823-6.091,1.645-9.264,2.43C528.474,324.138,526.604,309.002,524.128,294.335z M502.729,154.26
		c10.362,7.876,20.622,17.248,30.42,28.064c-1.87,0.958-3.894,1.902-6.134,2.739c-8.334-12.106-17.327-22.904-26.77-32.229
		c-0.584-0.589-1.172-1.225-1.771-1.804C499.886,152.045,501.303,153.19,502.729,154.26z M461.048,138.826
		c4.599,3.379,9.25,7.128,13.896,11.316c12.372,10.765,24.194,24.498,34.888,40.624c-1.392,0.389-2.859,0.744-4.29,1.131
		c-1.67,0.435-3.375,0.851-5.109,1.253c-2.141,0.528-4.3,1.024-6.534,1.51c-3.791-7.984-7.819-15.542-12.064-22.638
		c-0.201-0.332-0.397-0.659-0.59-1.005c-4.374-7.236-8.983-13.995-13.825-20.165c-2.987-3.955-6.113-7.685-9.237-11.101
		C459.108,139.452,460.074,139.162,461.048,138.826z M459.211,235.224c-0.997-5.072-2.028-10.05-3.15-14.902
		c9.517-1.383,18.683-3.029,27.424-5.025c1.504,4.066,2.949,8.231,4.343,12.48c4.332,13.177,8.109,27.237,11.278,41.97
		c-1.033,0.187-2.127,0.365-3.169,0.571c-6.193,1.178-12.564,2.252-19.113,3.271c-3.674,0.561-7.316,1.15-11.093,1.636
		C463.917,261.324,461.739,247.965,459.211,235.224z M443.131,143.336c4.23,4.777,8.372,10.19,12.378,16.173
		c4.38,6.389,8.529,13.429,12.498,20.931c2.95,5.548,5.777,11.349,8.462,17.454c-2.815,0.443-5.745,0.851-8.653,1.267
		c-5.398,0.748-10.867,1.458-16.523,2.038c-3.253-11.825-6.806-22.895-10.689-33.028c-3.164-8.273-6.54-15.925-10.116-22.843
		C434.745,144.776,438.966,144.107,443.131,143.336z M412.43,224.594c8.872-0.468,17.538-1.178,26.022-2.062
		c0.967,5.161,1.852,10.522,2.725,15.953c1.954,12.443,3.679,25.484,5.096,39.077c-0.562,0.037-1.127,0.065-1.674,0.122
		c-6.25,0.617-12.672,1.075-19.108,1.505c-2.062,0.131-4.034,0.365-6.128,0.477c-1.313-13.209-2.828-25.849-4.463-37.927
		C414.108,235.896,413.295,230.138,412.43,224.594z M421.134,300.233c9.213-0.636,18.211-1.515,26.984-2.571
		c1.444,17.698,2.426,36.104,2.828,55.054c-6.338,0.626-12.883,1.047-19.412,1.505c-2.571,0.178-5.011,0.43-7.605,0.58
		c-0.276-12.901-0.926-25.372-1.679-37.619C421.896,311.499,421.573,305.759,421.134,300.233z M426.668,172.99
		c2.786,9.156,5.404,19.081,7.782,29.724c-2.28,0.177-4.664,0.243-6.969,0.396c-5.323,0.328-10.652,0.65-16.13,0.884
		c-0.781,0.023-1.515,0.098-2.3,0.112c-1.29-7.395-2.627-14.419-3.964-21.127c-2.627-13.158-5.31-24.933-7.895-35.034
		c6.75-0.22,13.429-0.551,20.01-1.136c2.085,4.745,4.076,9.957,5.983,15.481C424.387,165.722,425.546,169.274,426.668,172.99z
		 M383.389,301.542c5.978,0,11.91-0.084,17.767-0.29c0.981,17.444,1.692,35.599,2.038,54.315c-6.38,0.159-12.812,0.178-19.305,0.122
		c-0.378-0.009-0.748,0-1.141,0c-7.133-0.047-14.219-0.168-21.235-0.383c0.214-11.957,0.626-23.559,1.126-35.02
		c0.276-6.423,0.556-12.873,0.902-19.118C370.082,301.374,376.714,301.542,383.389,301.542z M364.832,280.376
		c0.879-12.555,1.884-24.643,2.955-36.244c0.574-6.422,1.191-12.77,1.837-18.856c3.375,0.122,6.745,0.164,10.175,0.211
		c5.147,0,10.256-0.089,15.29-0.267c0.594,5.811,1.169,11.817,1.73,17.922c1.122,11.929,2.136,24.362,3.038,37.366
		c-0.402,0-0.804,0-1.206,0.019c-5.062,0.112-10.105,0.197-15.261,0.197c-1.249-0.01-2.454-0.056-3.702-0.066
		C374.709,280.601,369.745,280.555,364.832,280.376z M421.938,123.873c-0.07,0-0.154,0.009-0.224,0.009
		c-1.566,0.094-3.085,0.257-4.666,0.328c-0.397-0.496-0.78-0.935-1.182-1.417c-1.823-2.206-3.67-4.3-5.535-6.104
		C414.001,118.591,417.927,121.002,421.938,123.873z M396.047,114.505c1.402,1.136,2.828,2.52,4.277,4.179
		c0.542,0.579,1.089,1.267,1.66,1.949c1.066,1.299,2.136,2.66,3.197,4.173c-4.735,0.201-9.554,0.333-14.42,0.403
		c-0.673-2.174-1.337-4.166-1.963-6.002c-0.631-1.837-1.243-3.505-1.823-4.964C390.013,114.286,393.018,114.365,396.047,114.505z
		 M382.328,120.746c0.168,1.388,0.379,2.959,0.557,4.53h-0.178c-0.29,0-0.589,0-0.879,0
		C382.038,123.705,382.197,122.134,382.328,120.746z M382.707,148.235c1.056,0,2.071-0.042,3.132-0.042
		c0.729,5.52,1.51,11.545,2.347,17.986c1.472,11.457,3.084,24.297,4.702,38.357c-2.01,0.033-4.011,0.033-6.016,0.033
		c-2.328,0.014-4.646,0.047-6.993,0.047c-2.706,0-5.366-0.047-8.007-0.122c0,0-0.009,0-0.023,0c0-0.023,0.014-0.033,0.014-0.056
		c2.482-21.937,4.978-40.923,6.992-56.246C380.178,148.193,381.435,148.235,382.707,148.235z M364.388,118.685
		c0.112-0.136,0.215-0.234,0.322-0.355c1.239-1.36,2.431-2.528,3.599-3.524c3.127-0.22,6.254-0.397,9.377-0.486
		c-0.467,1.248-0.972,2.692-1.505,4.174c-0.71,2.038-1.449,4.235-2.257,6.717c-4.848-0.112-9.648-0.234-14.402-0.403
		C361.134,122.518,362.775,120.456,364.388,118.685z M350.678,118.783c1.249-0.734,2.496-1.482,3.702-2.094
		c-0.64,0.612-1.271,1.318-1.897,1.982c-1.613,1.706-3.198,3.496-4.777,5.492c-1.622-0.131-3.263-0.21-4.875-0.332
		C345.537,121.891,348.131,120.255,350.678,118.783z M340.166,166.222c2.319-7.072,4.792-13.583,7.362-19.464
		c6.558,0.589,13.209,0.945,19.978,1.188c-1.473,5.806-2.987,12.195-4.529,19.08c-2.463,11.111-4.955,23.507-7.33,37.043
		c-0.112,0-0.215-0.009-0.303-0.009c-5.007-0.177-9.943-0.411-14.827-0.71c-3.436-0.211-6.853-0.402-10.223-0.659
		c2.36-10.62,4.931-20.544,7.745-29.701C338.73,170.676,339.441,168.419,340.166,166.222z M322.315,297.896
		c6.974,0.822,14.037,1.552,21.249,2.075c-1.346,17.444-2.37,35.655-2.805,54.456c-6.095-0.355-12.036-0.832-18.019-1.309
		c-2.982-0.233-6.067-0.374-8.998-0.635c0.28-11.771,0.827-23.25,1.482-34.562c0.402-6.909,0.823-13.808,1.37-20.492
		c0.009-0.075,0.009-0.14,0.023-0.187C318.496,297.494,320.413,297.662,322.315,297.896z M318.468,277.218
		c1.257-12.014,2.767-23.56,4.459-34.656c1.038-6.815,2.122-13.513,3.319-19.95c8.446,0.837,17.188,1.514,26.017,1.982
		c-2.626,16.93-4.978,35.356-6.885,54.866c-5.646-0.336-11.078-0.897-16.58-1.383C325.381,277.778,321.848,277.572,318.468,277.218z
		 M309.18,159.51c4.006-6.03,8.194-11.429,12.513-16.286c4.123,0.79,8.344,1.458,12.565,2.02
		c-3.585,6.96-7.007,14.654-10.167,22.927c-3.856,10.134-7.432,21.161-10.648,32.986c-4.277-0.438-8.488-0.925-12.606-1.462
		c-4.295-0.547-8.474-1.146-12.56-1.799c5.722-13.074,12.051-24.839,18.875-35.225C307.843,161.632,308.479,160.533,309.18,159.51z
		 M235.06,340.488c-5.703-1.327-11.205-2.739-16.561-4.197c-4.576-1.253-9.073-2.552-13.383-3.917
		c1.458-12.228,3.553-24.12,6.091-35.693c1.215-5.422,2.528-10.779,3.949-16.042c0.673-2.458,1.305-4.945,2.005-7.348
		c3.931,1.505,7.998,2.982,12.186,4.403c4.352,1.478,8.839,2.907,13.485,4.301C239.159,300.701,236.495,320.267,235.06,340.488z
		 M233.732,261.802c-4.066-1.104-8.002-2.235-11.793-3.375c3.852-11.134,8.222-21.716,12.952-31.784
		c2.496-5.32,5.109-10.434,7.807-15.412c1.121-2.047,2.192-4.156,3.342-6.147c2.795,1.07,5.679,2.127,8.615,3.123
		c2.912,0.977,5.903,1.921,8.965,2.837c-6.736,16.636-12.513,34.753-17.113,54.021C242.109,264.008,237.855,262.915,233.732,261.802
		z M258.899,309.489c0.813-6.329,1.725-12.593,2.753-18.744c0.201-1.168,0.369-2.347,0.575-3.515
		c5.917,1.459,12.083,2.813,18.365,4.076c5.292,1.075,10.667,2.094,16.178,3.01c-1.855,17.996-3.127,36.749-3.716,56.007
		c-6.034-0.71-11.938-1.533-17.749-2.384c-6.731-0.99-13.34-2.056-19.749-3.225C256.258,332.691,257.422,320.969,258.899,309.489z
		 M299.009,274.843c-5.3-0.729-10.479-1.533-15.589-2.384c-6.058-1.019-11.994-2.084-17.739-3.226
		c2.464-11.293,5.324-22.138,8.484-32.561c1.893-6.333,3.931-12.504,6.072-18.458c0.322-0.888,0.622-1.813,0.949-2.693
		c4.529,0.991,9.186,1.921,13.953,2.763c4.408,0.799,8.886,1.524,13.448,2.168C304.744,237.346,301.538,255.594,299.009,274.843z
		 M289.744,150.143c4.735-4.268,9.466-8.073,14.112-11.536c0.981,0.378,1.944,0.687,2.828,0.981
		c-3.197,3.458-6.371,7.221-9.41,11.265c-9.764,12.471-18.622,27.214-26.493,43.765c-2.669-0.556-5.287-1.159-7.854-1.771
		c-2.748-0.677-5.44-1.378-8.049-2.113c5.479-8.245,11.247-15.859,17.229-22.778C277.811,161.356,283.71,155.386,289.744,150.143z
		 M266.27,151.03c-10.087,9.7-19.684,21.114-28.56,33.963c-1.047-0.429-2.104-0.864-3.066-1.28
		c-0.066-0.028-0.108-0.051-0.155-0.075c-0.954-0.379-1.855-0.833-2.729-1.249c-0.051-0.023-0.117-0.042-0.164-0.065
		C242.698,170.041,254.412,159.481,266.27,151.03z M215.391,202.298c2.244-3.048,4.501-6.109,6.83-9.003
		c0.977,0.655,1.972,1.22,2.963,1.838c0.912,0.556,1.8,1.145,2.702,1.668c0.505,0.309,1.093,0.603,1.607,0.837
		c-10.021,16.388-18.842,34.726-26.101,54.498c-3.333-1.234-6.437-2.478-9.446-3.777c-1.781-0.738-3.553-1.496-5.212-2.272
		c5.543-11.256,11.713-21.838,18.295-31.804C209.744,210.165,212.511,206.154,215.391,202.298z M177.889,215.376
		c8.863-11.35,18.585-22.03,29.177-31.748c-10.428,12.125-20.234,25.723-28.943,40.797c-2.271,3.852-4.375,7.853-6.492,11.901
		c-1.926-1.458-3.6-2.917-4.979-4.347l-0.248-0.271l-0.229-0.275C169.849,225.922,173.799,220.598,177.889,215.376z
		 M144.781,272.291c-0.155-0.271-0.281-0.533-0.444-0.804c1.192-2.702,2.337-5.395,3.594-8.012c1.417-2.963,2.945-5.843,4.469-8.731
		c2.87-5.422,5.848-10.788,9.096-16.004c0.089,0.149,0.215,0.281,0.323,0.402c1.57,2.094,3.361,4.085,5.427,6.058
		c-5.937,12.499-11.026,25.746-15.304,39.545C149.46,280.704,147.085,276.525,144.781,272.291z M172.032,313.331
		c-1.697-2.132-3.455-4.208-5.114-6.395c2.104-8.769,4.553-17.323,7.372-25.643c1.44-4.253,2.95-8.479,4.576-12.621
		c1.505-3.852,3.029-7.666,4.679-11.387c1.659,1,3.463,1.982,5.259,2.963c3.202,1.749,6.492,3.459,10.031,5.151
		c-6.091,18.865-10.732,38.899-13.654,59.756c-1.804-0.729-3.417-1.515-5.123-2.3C177.319,319.772,174.659,316.584,172.032,313.331z
		 M216.471,356.96c-2.66-2.076-5.319-4.151-7.905-6.319c2.698,0.963,5.404,1.917,8.199,2.805c5.619,1.794,11.368,3.515,17.323,5.113
		c-0.112,3.627-0.14,7.311-0.201,10.966C227.923,365.58,222.131,361.354,216.471,356.96z M273.81,391.597
		c-2.692-1.244-5.366-2.552-8.026-3.871c-3.734-1.823-7.417-3.767-11.073-5.759c0-1.608-0.088-3.179-0.088-4.786
		c0-3.581,0.047-7.17,0.121-10.714c0.023-0.981,0.023-1.963,0.038-2.917c6.357,1.366,12.892,2.627,19.562,3.786
		c5.993,1.047,12.064,2.02,18.291,2.879c-0.056,2.319-0.056,4.6-0.056,6.965c0,7.553,0.173,14.985,0.364,22.408
		C286.473,397.112,280.092,394.448,273.81,391.597z M321.908,409.191c-2.697-0.768-5.347-1.58-8.021-2.403
		c-0.112-4.487-0.145-9.087-0.219-13.649c-0.08-5.31-0.225-10.573-0.225-15.958c0-1.468,0-2.955,0-4.385
		c8.839,0.925,17.87,1.692,27.027,2.281c0,0.664,0,1.384,0,2.104c0,12.555,0.332,24.811,0.804,36.88
		C334.749,412.604,328.298,410.986,321.908,409.191z M384.296,421.251c-7.456-0.822-14.874-1.842-22.226-3.076
		c-0.234-7.544-0.412-15.183-0.542-22.923c-0.089-6.002-0.225-11.966-0.243-18.07c0-0.384,0.056-0.72,0.056-1.104
		c7.002,0.253,14.097,0.421,21.268,0.467c6.979,0.084,13.906,0,20.801-0.214c0,0.299,0,0.56,0,0.851
		c-0.033,15.64-0.393,30.804-0.935,45.677C396.402,422.447,390.344,421.914,384.296,421.251z M432.104,423.868
		c-3.043,0-6.068-0.028-9.129-0.084c0.509-10.209,0.841-20.613,1.01-31.215c0.089-5.124,0.233-10.181,0.233-15.388
		c0-0.589,0-1.178,0-1.776c9.176-0.589,18.211-1.356,27.027-2.366c0,1.403,0.046,2.749,0.046,4.142
		c-0.037,15.78-0.477,31.205-1.173,46.331C444.117,423.746,438.106,423.868,432.104,423.868z M496.202,367.515
		c-1.907,16.818-3.417,31.168-5.623,52.745c-5.661,0.71-11.335,1.309-17.028,1.804c-0.892,0.085-1.823,0.132-2.729,0.206
		c0.625-11.92,1.022-24.025,1.14-36.347c0.042-2.917,0.154-5.805,0.154-8.741c0-2.328,0-4.562-0.047-6.844
		c2.497-0.383,4.88-0.851,7.338-1.252c0.38-3.262,0.759-6.646,1.192-10.274c4.534,2.627,9.073,5.143,13.621,7.628
		c0.734-0.149,1.427-0.299,2.149-0.457C496.314,366.496,496.253,367,496.202,367.515z M499.4,340.012
		c-0.248,2.104-0.481,4.132-0.726,6.086c-3.14,0.561-6.24,1.14-9.465,1.664c-5.749,0.935-11.593,1.823-17.566,2.599
		c-0.42-13.864-1.299-27.325-2.393-40.554c-0.406-5.02-0.752-10.106-1.268-15.023c12.07-1.991,23.639-4.337,34.618-7.01
		c0.757,4.318,1.43,8.684,2.085,13.087c1.612,11.013,2.842,22.324,3.763,33.889c0.243,3.131,0.506,6.273,0.706,9.442
		c-0.561,0.122-1.164,0.205-1.721,0.317C504.757,343.013,502.068,341.544,499.4,340.012z M531.793,357.475
		c10.287-2.954,20.085-6.189,29.266-9.657c0.589,7.834,0.855,15.789,0.931,23.811C551.858,367.226,541.791,362.504,531.793,357.475z
		 M586.847,381.79c-1.323-0.514-2.633-1.047-3.955-1.542c0-1.028,0.033-2.047,0.033-3.066c0.07-9.956-0.397-19.734-1.127-29.42
		c-0.204-2.805-0.34-5.637-0.598-8.433c1.056-0.496,2.117-0.991,3.183-1.496c6.325-3.084,12.285-6.394,17.721-9.769
		c0.22,1.421,0.402,2.87,0.612,4.291c1.099,7.414,1.926,14.929,2.439,22.567c0.51,7.311,0.79,14.734,0.711,22.259
		c0.023,3.852-0.099,7.666-0.215,11.471C599.35,386.492,593.072,384.165,586.847,381.79z M626.151,395.29
		c0-0.159,0.02-0.281,0.038-0.411c6.666-5.451,12.229-11.06,16.604-16.65c-0.038,7.273-0.393,14.472-0.991,21.595
		C636.548,398.385,631.341,396.869,626.151,395.29z"/>
</g>
</svg>
