<?xml version="1.0" encoding="utf-8"?>
<!-- Generator: Adobe Illustrator 16.0.0, SVG Export Plug-In . SVG Version: 6.00 Build 0)  -->
<!DOCTYPE svg PUBLIC "-//W3C//DTD SVG 1.1//EN" "http://www.w3.org/Graphics/SVG/1.1/DTD/svg11.dtd">
<svg version="1.1" id="Layer_1" xmlns="http://www.w3.org/2000/svg" xmlns:xlink="http://www.w3.org/1999/xlink" x="0px" y="0px"
	 width="889.455px" height="792px" viewBox="0 0 889.455 792" enable-background="new 0 0 889.455 792" xml:space="preserve">
<path fill="#FFFFFF" stroke="#A7A9AC" stroke-miterlimit="10" d="M723.309,173.934c-5.493-6.533-13.771-10.269-22.742-10.269
	H275.601c-17.513,0-33.649,13.647-36.714,31.054l-0.224,1.208H130.767c-8.977,0-17.267,3.736-22.748,10.269
	c-5.543,6.623-7.819,15.595-6.231,24.656l55.301,313.652c3.088,17.451,19.213,31.1,36.737,31.1h443.58
	c8.972,0,17.25-3.736,22.731-10.292c3.379-4.027,5.525-8.927,6.343-14.185l0.167,0.045l62.893-352.604
	C731.128,189.528,728.857,180.534,723.309,173.934z M643.279,551.172c-1.331,1.588-3.356,2.416-5.873,2.416h-443.58
	c-6.802,0-13.838-6.019-15.057-12.909l-55.302-313.652c-0.464-2.663,0.028-5.034,1.421-6.667c1.32-1.588,3.351-2.417,5.878-2.417
	h127.819c6.796,0,13.843,6.041,15.052,12.91l2.372,13.469c3.071,17.429,19.208,31.099,36.731,31.099h271.736
	c6.808,0,13.843,6.041,15.058,12.932L644.7,544.504C645.17,547.145,644.655,549.539,643.279,551.172z M707.86,194.741
	l-51.526,288.975l-35.132-199.19c-3.076-17.451-19.213-31.122-36.726-31.122H312.741c-6.802,0-13.838-6.041-15.058-12.909
	l-2.366-13.469c-2.914-16.534-17.597-29.645-34.052-30.987c2.249-5.75,8.39-10.381,14.335-10.381h424.966
	c2.517,0,4.542,0.85,5.873,2.394C707.826,189.729,708.318,192.102,707.86,194.741z"/>
</svg>
