<?xml version="1.0" encoding="utf-8"?>
<!-- Generator: Adobe Illustrator 16.0.0, SVG Export Plug-In . SVG Version: 6.00 Build 0)  -->
<!DOCTYPE svg PUBLIC "-//W3C//DTD SVG 1.1//EN" "http://www.w3.org/Graphics/SVG/1.1/DTD/svg11.dtd">
<svg version="1.1" id="Layer_1" xmlns="http://www.w3.org/2000/svg" xmlns:xlink="http://www.w3.org/1999/xlink" x="0px" y="0px"
	 width="889.455px" height="792px" viewBox="0 0 889.455 792" enable-background="new 0 0 889.455 792" xml:space="preserve">
<g>
	<path fill="#FFFFFF" stroke="#939598" stroke-miterlimit="10" d="M191.849,351.364c11.845,28.166,34.418,43.489,49.474,43.489
		c14.791,0,35.52-14.81,47.534-42.611c2.912-6.756,5.438-15.374,7.195-23.809c1.96-6.744,3.046-15.293,3.046-26.225
		c0-28.882-25.867-53.242-57.775-53.242c-31.892,0-57.758,24.359-57.758,53.242c0,7.622,0.47,14.089,1.341,19.587
		C186.076,331.824,188.335,343.099,191.849,351.364z"/>
	<path fill="#FFFFFF" stroke="#939598" stroke-miterlimit="10" d="M343.472,433.666c-11.552-12.347-44.016-9.253-60.063-17.734
		c-7.138,13.344-7.231,35.283-19.078,35.283c-0.507,0-1.037-0.043-1.586-0.123c-17.849-2.679-8.924-48.206-21.422-48.206
		c-12.496,0-3.569,45.527-21.42,48.206c-0.549,0.08-1.079,0.123-1.587,0.123c-11.843,0-11.94-21.939-19.074-35.283
		c-16.042,8.481-48.51,5.388-60.014,17.734c-6.256,6.685-9.505,48.113-9.505,66.514h223.199
		C352.922,481.779,349.692,440.351,343.472,433.666z"/>
</g>
<g>
	<path fill="#FFFFFF" stroke="#939598" stroke-miterlimit="10" d="M541.644,351.364c11.844,28.166,34.418,43.489,49.475,43.489
		c14.793,0,35.52-14.81,47.532-42.611c2.916-6.756,5.438-15.374,7.196-23.809c1.959-6.744,3.044-15.293,3.044-26.225
		c0-28.882-25.864-53.242-57.772-53.242c-31.893,0-57.756,24.359-57.756,53.242c0,7.622,0.466,14.089,1.339,19.587
		C535.871,331.824,538.126,343.099,541.644,351.364z"/>
	<path fill="#FFFFFF" stroke="#939598" stroke-miterlimit="10" d="M693.265,433.666c-11.55-12.347-44.014-9.253-60.065-17.734
		c-7.138,13.344-7.231,35.283-19.074,35.283c-0.509,0-1.034-0.043-1.585-0.123c-17.854-2.679-8.927-48.206-21.422-48.206
		c-12.496,0-3.569,45.527-21.423,48.206c-0.551,0.08-1.076,0.123-1.585,0.123c-11.843,0-11.94-21.939-19.074-35.283
		c-16.043,8.481-48.507,5.388-60.016,17.734c-6.256,6.685-9.505,48.113-9.505,66.514h223.197
		C702.713,481.779,699.487,440.351,693.265,433.666z"/>
</g>
<g>
	<path fill="#FFFFFF" stroke="#939598" stroke-miterlimit="10" d="M372.267,245.551c11.845,28.166,34.418,43.488,49.474,43.488
		c14.793,0,35.521-14.81,47.534-42.611c2.914-6.756,5.437-15.378,7.197-23.812c1.958-6.74,3.043-15.293,3.043-26.221
		c0-28.882-25.866-53.246-57.774-53.246c-31.888,0-57.756,24.364-57.756,53.246c0,7.621,0.468,14.085,1.341,19.587
		C366.496,226.01,368.753,237.281,372.267,245.551z"/>
	<path fill="#FFFFFF" stroke="#939598" stroke-miterlimit="10" d="M523.893,327.857c-11.55-12.352-44.017-9.262-60.068-17.739
		c-7.136,13.348-7.231,35.282-19.076,35.282c-0.504,0-1.034-0.038-1.585-0.127c-17.849-2.675-8.925-48.198-21.422-48.198
		c-12.494,0-3.569,45.523-21.418,48.198c-0.551,0.089-1.081,0.127-1.59,0.127c-11.843,0-11.94-21.935-19.072-35.282
		c-16.043,8.477-48.509,5.387-60.013,17.739c-6.258,6.68-9.507,48.109-9.507,66.513h223.2
		C533.341,375.966,530.115,334.537,523.893,327.857z"/>
</g>
</svg>
