<?xml version="1.0" encoding="utf-8"?>
<!-- Generator: Adobe Illustrator 19.0.0, SVG Export Plug-In . SVG Version: 6.00 Build 0)  -->
<svg version="1.1" id="Capa_1" xmlns="http://www.w3.org/2000/svg" xmlns:xlink="http://www.w3.org/1999/xlink" x="0px" y="0px"
	 viewBox="0 0 613 340" style="enable-background:new 0 0 613 340;" xml:space="preserve">
<style type="text/css">
	.st0{fill:#DE6B22;}
	.st1{fill:none;stroke:#000000;stroke-miterlimit:10;}
	.st2{fill:#FFFFFF;stroke:#000000;stroke-width:0.5;stroke-miterlimit:10;}
	.st3{fill:none;stroke:#010101;stroke-miterlimit:10;}
	.st4{fill:#FFFFFF;}
</style>
<g id="XMLID_1_">
	<path id="XMLID_599_" class="st0" d="M99.9,237.1c0,0.9,0.2,1.9,1.2,2.2v1.4c-4.2-0.1-7.5-4.3-7.5-9.5c0-5.2,3.3-9.4,7.5-9.5v1.4
		c-1,0.3-1.2,1.3-1.2,2.2V237.1z M102.1,239.3c1.1-0.3,1.1-1.1,1.1-1.6v-4.4c0-0.5,0-0.7-1-0.8c-0.4-0.1-0.6-0.3-0.6-0.7
		c0-0.7,0.9-0.7,1-0.7h5.8c0.1,0,0.9-0.1,0.9,0.7c0,0.4-0.2,0.6-0.4,0.7c-0.5,0.3-0.4,0.6-0.4,0.7v4.8c-1.7,1.5-3.9,2.5-6.2,2.6
		V239.3z M102.1,221.8c2.6,0.2,3.9,0.9,4.1,0.9c0.7,0,0.7-0.9,1.4-0.9c0.7,0,0.7,0.7,0.7,0.8v5.4c0,0.1,0,0.9-0.8,0.9
		c-0.6,0-0.8-0.5-0.9-1c-0.8-3.1-2.6-4.6-4.6-4.7V221.8z"/>
	<path id="XMLID_594_" class="st0" d="M111.7,222.2h6.4v18.2h-6.4c-0.1,0-0.9,0-0.9-0.8c0-0.3,0.2-0.6,0.5-0.7
		c0.9-0.3,0.8-0.4,0.8-1.3v-12.7c0-0.9,0-1-0.8-1.3c-0.3-0.1-0.5-0.3-0.5-0.7C110.8,222.2,111.6,222.2,111.7,222.2 M119.2,222.2h5.4
		v4.9c0,0.1,0,0.6-0.8,0.6c-0.4,0-0.5-0.2-0.7-0.6c-0.6-2-1.9-3.2-4-3.5V222.2z M119.2,230.3c1-0.3,1.5-1.2,1.7-2.1
		c0.1-0.4,0.3-0.8,0.8-0.8c0.8,0,0.6,0.9,0.6,1.1v5.2c0,0.2,0.1,1.1-0.6,1.1c-0.5,0-0.7-0.4-0.8-0.8c-0.2-0.9-0.7-1.9-1.7-2.1V230.3
		z M119.2,239c2-0.2,3.5-1.6,4.1-3.5c0.2-0.4,0.3-0.8,0.8-0.8c0.8,0,0.7,0.7,0.7,0.8v4.9h-5.6V239z"/>
	<path id="XMLID_590_" class="st0" d="M133.1,223.2c-0.9,0.3-1.7,1-1.7,2c0,1.2,0.7,1.9,3.5,3c4.3,1.7,5.3,3.9,5.3,6.2
		c0,3.8-3.1,6.2-6.7,6.3v-1.4c1.2-0.4,2.2-0.9,2.2-2.2c0-1.5-1.7-2.2-2.9-2.7c-3.1-1.3-5.9-2.7-5.9-6.5c0-3.7,2.7-6,6.2-6.1V223.2z
		 M126.9,234.9c0-0.5,0.1-1.2,0.8-1.2c0.5,0,0.8,0.4,0.9,0.8c0.3,1.9,1.7,4.4,3.8,4.8v1.4c-2.1,0-2.6-0.9-3.5-0.9
		c-0.8,0-0.7,0.8-1.3,0.8c-0.8,0-0.8-0.9-0.8-1V234.9z M139.6,227.1c0,0.6-0.1,1.2-0.8,1.2c-0.6,0-0.8-0.5-0.9-0.9
		c-0.3-1.8-1.8-3.6-3.7-4.1v-1.4c1.5,0,3.2,0.9,3.4,0.9c0.6,0,0.6-0.9,1.2-0.9c0.8,0,0.7,0.8,0.7,1V227.1z"/>
	<path id="XMLID_586_" class="st0" d="M141.8,222.2h3.5v1.4c-1.3,0.9-1.6,2.5-1.8,3.8c-0.1,0.5-0.2,1.2-0.9,1.2
		c-0.7,0-0.8-0.6-0.8-0.7V222.2z M146.4,222.2h6v15.5c0,0.9,0,1,0.8,1.3c0.3,0.1,0.5,0.3,0.5,0.7c0,0.7-0.8,0.8-0.9,0.8h-6.9
		c-0.1,0-0.9,0-0.9-0.8c0-0.3,0.2-0.6,0.5-0.7c0.9-0.3,0.8-0.4,0.8-1.3V222.2z M156.9,227.8c0,0.1-0.1,0.7-0.8,0.7
		c-0.7,0-0.8-0.6-0.9-1.2c-0.2-1.3-0.6-2.9-1.8-3.8v-1.4h3.5V227.8z"/>
	<path id="XMLID_585_" class="st0" d="M165.4,237.6c0,0.9,0,1,0.8,1.3c0.3,0.1,0.5,0.3,0.5,0.7c0,0.7-0.8,0.8-0.9,0.8H159
		c-0.1,0-0.9,0-0.9-0.8c0-0.3,0.2-0.6,0.5-0.7c0.9-0.3,0.8-0.4,0.8-1.3v-12.7c0-0.9,0-1-0.8-1.3c-0.3-0.1-0.5-0.3-0.5-0.7
		c0-0.7,0.8-0.8,0.9-0.8h6.9c0.1,0,0.9,0,0.9,0.8c0,0.3-0.2,0.6-0.5,0.7c-0.9,0.3-0.8,0.4-0.8,1.3V237.6z"/>
	<path id="XMLID_582_" class="st0" d="M175.9,223.2c-1.1,0.4-1.2,1.1-1.2,1.8v12.6c0,0.6,0.1,1.3,1.2,1.7v1.4
		c-5.2-0.5-7.6-4.6-7.6-9.5c0-4.8,2.4-9,7.6-9.5V223.2z M177,239.3c1.1-0.4,1.2-1.1,1.2-1.7V225c0-0.6-0.1-1.3-1.2-1.8v-1.4
		c5.2,0.5,7.6,4.6,7.6,9.5c0,4.8-2.4,9-7.6,9.5V239.3z"/>
	<path id="XMLID_577_" class="st0" d="M187.9,226.8L187.9,226.8l1.4,2.4v7.3c0.4,3,1.9,2.1,1.9,3.1c0,0.8-1,0.7-1.3,0.7h-2.8
		c-0.3,0-1.3,0-1.3-0.7c0-1,1.6-0.1,1.9-3.1V226.8z M200.6,234.5v5.9h-3.6L188,225c-0.4-0.7-0.5-1-1.3-1.3c-0.4-0.1-0.7-0.2-0.7-0.8
		c0-0.7,0.7-0.7,1.2-0.8h6.2L200.6,234.5z M199.2,226.6c0-3.5-2-2.6-2-3.7c0-0.7,0.8-0.7,1-0.7h3.3c0.2,0,1,0,1,0.7
		c0,1.1-2,0.2-2,3.7v5.9h0l-1.4-2.5V226.6z"/>
</g>
<polyline id="XMLID_576_" class="st1" points="384.1,99.5 206.3,244.1 87.6,244.1 "/>
<line id="XMLID_575_" class="st2" x1="84.4" y1="208.4" x2="522.3" y2="208.4"/>
<line id="XMLID_574_" class="st2" x1="84.4" y1="132.3" x2="522.3" y2="132.3"/>
<path id="XMLID_573_" class="st0" d="M370,175.3c0,35.3-28.6,64-64,64c-35.3,0-64-28.6-64-64c0-35.3,28.6-64,64-64
	C341.4,111.4,370,140,370,175.3"/>
<circle id="XMLID_572_" class="st3" cx="306" cy="175.3" r="64"/>
<path id="XMLID_569_" class="st4" d="M338.8,163.2c0-0.1,0-0.2-0.1-0.3c0,0,0-0.1,0-0.1c-0.1-0.1-0.1-0.2-0.2-0.3l-29.9-29.9
	c-0.1-0.1-0.2-0.2-0.3-0.2c0,0-0.1,0-0.1,0c-0.1,0-0.2,0-0.3-0.1c0,0,0,0-0.1,0h-30.5c-0.6,0-1.1,0.5-1.1,1.1v78.8
	c0,0.6,0.5,1.1,1.1,1.1h60.3c0.6,0,1.1-0.5,1.1-1.1L338.8,163.2C338.8,163.2,338.8,163.2,338.8,163.2 M278.4,211.1v-76.6h28.3v28.8
	c0,0.6,0.5,1.1,1.1,1.1h28.8v46.8H278.4z"/>
<rect id="XMLID_568_" x="287.3" y="171.7" class="st4" width="2.6" height="2.2"/>
<rect id="XMLID_567_" x="296" y="171.7" class="st4" width="31.7" height="2.2"/>
<rect id="XMLID_566_" x="296" y="180.5" class="st4" width="31.7" height="2.2"/>
<rect id="XMLID_565_" x="287.3" y="180.5" class="st4" width="2.6" height="2.2"/>
<rect id="XMLID_564_" x="287.3" y="189.4" class="st4" width="2.6" height="2.2"/>
<rect id="XMLID_563_" x="296" y="189.4" class="st4" width="31.7" height="2.2"/>
<rect id="XMLID_561_" x="287.3" y="198.2" class="st4" width="2.6" height="2.2"/>
<rect id="XMLID_560_" x="296" y="198.2" class="st4" width="31.7" height="2.2"/>
<path id="XMLID_556_" d="M99.4,190.4c0,2.8,0.6,6.1,3.7,7.2v4.5c-13.5-0.4-24-13.6-24-30.3c0-16.7,10.4-30,24-30.3v4.5
	c-3.1,1.1-3.7,4.3-3.7,7.1V190.4z M106.7,197.6c3.4-1,3.6-3.7,3.6-5v-14c0-1.7-0.1-2.1-3.2-2.6c-1.2-0.3-2-1-2-2.3
	c0-2.1,2.7-2.2,3.1-2.2h18.6c0.4,0,2.7-0.2,2.7,2.3c0,1.3-0.7,1.9-1.4,2.3c-1.6,1-1.4,1.9-1.4,2.3v15.4c-5.5,4.9-12.6,8.1-20,8.3
	V197.6z M106.7,141.5c8.2,0.7,12.4,2.9,13.2,2.9c2.3,0,2.1-2.9,4.6-2.9c2.3,0,2.2,2.1,2.2,2.5v17.4c0,0.4,0,2.8-2.4,2.8
	c-2,0-2.6-1.5-3-3.1c-2.4-10-8.3-14.7-14.6-15V141.5z"/>
<path id="XMLID_551_" d="M137.3,142.7h20.6v58.2h-20.6c-0.3,0-2.9-0.2-2.9-2.4c0-1.1,0.7-1.8,1.7-2.1c2.7-0.9,2.6-1.3,2.6-4.2v-40.8
	c0-2.9,0.1-3.3-2.6-4.2c-1-0.3-1.7-1-1.7-2.1C134.5,142.8,137,142.7,137.3,142.7 M161.4,142.7h17.4v15.8c0,0.4-0.1,1.9-2.4,1.9
	c-1.3,0-1.7-0.8-2.1-1.9c-2-6.3-6-10.1-12.8-11.2V142.7z M161.4,168.7c3.3-0.9,4.7-3.9,5.4-6.9c0.4-1.3,0.9-2.6,2.5-2.6
	c2.4,0,2,2.8,2,3.4v16.8c0,0.6,0.4,3.4-2,3.4c-1.6,0-2.1-1.2-2.5-2.6c-0.7-3-2.2-6-5.4-6.9V168.7z M161.4,196.4
	c6.3-0.8,11.1-5.1,13.2-11.3c0.5-1.2,1-2.4,2.4-2.4c2.5,0,2.3,2.3,2.3,2.6v15.6h-17.9V196.4z"/>
<path id="XMLID_548_" d="M208.3,200.9h-19.8c-1.7,0-3.7-0.2-3.7-2.4c0-1.1,0.7-1.8,1.7-2.1c2.7-0.9,2.6-1.3,2.6-4.2v-40.8
	c0-1.2,0.2-3.3-1.3-3.7c-1.6-0.5-3-0.8-3-2.7c0-2,1.9-2.3,3.5-2.3h19.9V200.9z M211.8,142.7c13.2-0.2,24.3,9,25.2,29.1
	c0.9,18.3-12.3,29.1-25.2,29.1v-4.5c4.7-0.6,5-5.1,5-8v-33.2c0-3-0.2-7.4-5-8V142.7z"/>
<path id="XMLID_544_" d="M394.9,146c-3,1-5.5,3.2-5.5,6.4c0,3.8,2.1,6.2,11.4,9.7c13.8,5.3,16.9,12.6,16.9,19.8
	c0,12.1-10,19.9-21.6,20.2v-4.5c3.7-1.2,6.9-2.9,7.1-7.2c0.2-4.9-5.6-6.9-9.3-8.6c-9.8-4.1-18.9-8.6-18.9-20.8
	c0-11.8,8.6-19.2,20-19.5V146z M374.9,183.5c0-1.6,0.3-3.8,2.5-3.8c1.6,0,2.6,1.2,2.9,2.6c1.1,6.2,5.5,13.9,12.3,15.3v4.5
	c-6.8-0.2-8.3-2.9-11.1-2.9c-2.5,0-2.3,2.6-4.2,2.6c-2.4,0-2.4-2.9-2.4-3.3V183.5z M415.6,158.3c0,1.8-0.3,3.7-2.6,3.7
	c-1.9,0-2.6-1.5-2.8-3c-0.9-5.8-5.7-11.7-11.8-13v-4.5c4.9,0.1,10.1,3,11,3c2,0,1.9-2.8,3.9-2.8c2.4,0,2.3,2.6,2.3,3.3V158.3z"/>
<path id="XMLID_540_" d="M437,178.3l-11.8-27.9c-0.5-1.4-0.9-2.4-2.3-3.3c-1-0.5-1.8-0.9-1.8-2.3c0-2.4,2.5-2.3,4.1-2.3h19.2
	c1.7,0,4.3-0.2,4.3,2.3c0,1.2-0.9,1.8-1.7,2.3c-0.9,0.5-1.5,0.8-1.5,1.9c0,1,0.4,2,0.8,3l9.7,22v18c0,2.9-0.1,3.3,2.6,4.2
	c1,0.3,1.7,1,1.7,2.1c0,2.3-2.6,2.4-2.9,2.4h-22c-0.3,0-2.9-0.2-2.9-2.4c0-1.1,0.7-1.8,1.7-2.1c2.7-0.9,2.6-1.3,2.6-4.2V178.3z
	 M455.2,164.4l4-9c0.6-1.3,1.2-2.6,1.2-4.1c0-4.7-5.3-3-5.3-6.1c0-2.8,3.2-2.4,5.1-2.4h8.6c1.8,0,4,0.2,4,2.5c0,1.3-0.9,1.9-1.9,2.3
	c-3.2,1.3-4,2.5-5.5,5.7l-7.6,16.7L455.2,164.4z"/>
<path id="XMLID_536_" d="M496.3,146c-3,1-5.5,3.2-5.5,6.4c0,3.8,2.1,6.2,11.4,9.7c13.8,5.3,16.9,12.6,16.9,19.8
	c0,12.1-10,19.9-21.6,20.2v-4.5c3.7-1.2,6.9-2.9,7.1-7.2c0.2-4.9-5.6-6.9-9.3-8.6c-9.8-4.1-18.9-8.6-18.9-20.8
	c0-11.8,8.6-19.2,20-19.5V146z M476.3,183.5c0-1.6,0.3-3.8,2.5-3.8c1.6,0,2.6,1.2,2.9,2.6c1.1,6.2,5.4,13.9,12.3,15.3v4.5
	c-6.8-0.2-8.3-2.9-11.1-2.9c-2.5,0-2.3,2.6-4.2,2.6c-2.4,0-2.4-2.9-2.4-3.3V183.5z M516.9,158.3c0,1.8-0.3,3.7-2.6,3.7
	c-1.9,0-2.6-1.5-2.8-3c-0.9-5.8-5.7-11.7-11.8-13v-4.5c4.9,0.1,10.1,3,11,3c2,0,1.9-2.8,3.9-2.8c2.4,0,2.3,2.6,2.3,3.3V158.3z"/>
<path id="XMLID_533_" class="st0" d="M397.8,122.6h-4.2c-0.4,0-0.8,0-0.8-0.5c0-0.2,0.1-0.4,0.4-0.4c0.6-0.2,0.6-0.3,0.6-0.9v-8.6
	c0-0.2,0-0.7-0.3-0.8c-0.3-0.1-0.6-0.2-0.6-0.6c0-0.4,0.4-0.5,0.7-0.5h4.2V122.6z M398.5,110.2c2.8,0,5.1,1.9,5.3,6.2
	c0.2,3.9-2.6,6.2-5.3,6.2v-1c1-0.1,1.1-1.1,1.1-1.7v-7c0-0.6,0-1.6-1.1-1.7V110.2z"/>
<path id="XMLID_530_" class="st0" d="M409.8,111c-0.8,0.3-0.8,0.8-0.8,1.2v8.5c0,0.4,0.1,0.9,0.8,1.2v1c-3.5-0.3-5.1-3.1-5.1-6.4
	c0-3.3,1.6-6.1,5.1-6.4V111z M410.6,121.9c0.8-0.3,0.8-0.8,0.8-1.2v-8.5c0-0.4-0.1-0.9-0.8-1.2v-1c3.5,0.3,5.1,3.1,5.1,6.4
	c0,3.3-1.6,6.1-5.1,6.4V121.9z"/>
<path id="XMLID_526_" class="st0" d="M421.8,122.8c-3.6-0.1-5.3-2.8-5.3-6.2c0-3.8,2.1-6.5,5.3-6.6v1c-0.8,0.2-1.1,0.8-1.1,1.5v7.8
	c0,0.7,0.3,1.4,1.1,1.6V122.8z M422.5,110c0.6,0,1.9,0.7,2.3,0.7c0.2,0,0.3-0.1,0.4-0.3c0.1-0.2,0.2-0.3,0.4-0.3
	c0.5,0,0.5,0.5,0.5,0.6v3.8c0,0.1,0,0.6-0.5,0.6c-0.3,0-0.5-0.3-0.6-0.6c-0.3-1.3-1.1-3-2.6-3.5V110z M425.8,119
	c0.3,0,0.5,0.3,0.5,0.6c0,1.4-2,3.3-3.7,3.3v-1c1.3-0.3,2.3-1.1,2.7-2.3C425.3,119.2,425.4,119,425.8,119"/>
<path id="XMLID_520_" class="st0" d="M433.7,122.8c-1.3,0-2.3,0-3.4-0.6c-1.5-0.8-1.7-1.5-1.7-2.3v-7.8c0-0.6,0-0.7-0.6-0.9
	c-0.2-0.1-0.4-0.2-0.4-0.4c0-0.5,0.5-0.5,0.6-0.5h4.7c0.1,0,0.6,0,0.6,0.5c0,0.2-0.1,0.4-0.4,0.4c-0.6,0.2-0.6,0.3-0.6,0.9v7.9
	c0,0.2-0.1,1.5,1.1,1.8V122.8z M436.6,112.8c-0.3-2.1-1.3-1.4-1.3-2.1c0-0.5,0.7-0.5,0.9-0.5h1.9c0.2,0,0.9,0,0.9,0.5
	c0,0.7-1.1,0.1-1.3,2.1v6.2c-0.1,2.7-2.1,3.7-3.2,3.7v-1c1.5-0.5,2.1-1.3,2.2-2.8V112.8z"/>
<path id="XMLID_512_" class="st0" d="M440.8,110.2h4.2l1.8,5.1h0l0.7-2.7h0v3l-2.1,7H445l-3.4-10.2c-0.1-0.2-0.2-0.5-0.3-0.7
	c-0.1-0.2-0.2-0.4-0.5-0.5c-0.2,0-0.6,0-0.6-0.4C440.1,110.2,440.6,110.2,440.8,110.2 M441.5,114.4L441.5,114.4l1,2.7v2.8
	c0.3,2.1,1.3,1.4,1.3,2.1c0,0.5-0.7,0.5-0.9,0.5H441c-0.2,0-0.9,0-0.9-0.5c0-0.7,1.1-0.1,1.3-2.1V114.4z M448.3,110.2h4.3
	c0.1,0,0.6,0,0.6,0.5c0,0.2-0.1,0.4-0.4,0.4c-0.6,0.2-0.6,0.3-0.6,0.9v8.6c0,0.6,0,0.7,0.6,0.9c0.2,0.1,0.4,0.2,0.4,0.4
	c0,0.5-0.5,0.5-0.6,0.5H448c-0.1,0-0.6,0-0.6-0.5c0-0.2,0.1-0.4,0.4-0.4c0.6-0.2,0.6-0.3,0.6-0.9V110.2z"/>
<path id="XMLID_500_" class="st0" d="M455.2,110.2h4.3v12.3h-4.3c-0.1,0-0.6,0-0.6-0.5c0-0.2,0.1-0.4,0.4-0.4
	c0.6-0.2,0.6-0.3,0.6-0.9v-8.6c0-0.6,0-0.7-0.6-0.9c-0.2-0.1-0.4-0.2-0.4-0.4C454.6,110.3,455.1,110.2,455.2,110.2 M460.3,110.2h3.7
	v3.3c0,0.1,0,0.4-0.5,0.4c-0.3,0-0.4-0.2-0.4-0.4c-0.4-1.3-1.3-2.1-2.7-2.4V110.2z M460.3,115.7c0.7-0.2,1-0.8,1.2-1.4
	c0.1-0.3,0.2-0.5,0.5-0.5c0.5,0,0.4,0.6,0.4,0.7v3.6c0,0.1,0.1,0.7-0.4,0.7c-0.3,0-0.4-0.3-0.5-0.5c-0.1-0.6-0.5-1.3-1.2-1.5V115.7z
	 M460.3,121.6c1.3-0.2,2.4-1.1,2.8-2.4c0.1-0.2,0.2-0.5,0.5-0.5c0.5,0,0.5,0.5,0.5,0.6v3.3h-3.8V121.6z"/>
<path id="XMLID_55_" class="st0" d="M466.7,113.3L466.7,113.3l1,1.6v5c0.3,2.1,1.3,1.4,1.3,2.1c0,0.5-0.7,0.5-0.9,0.5h-1.9
	c-0.2,0-0.9,0-0.9-0.5c0-0.7,1.1-0.1,1.3-2.1V113.3z M475.3,118.6v4h-2.5l-6-10.4c-0.3-0.5-0.3-0.7-0.9-0.9
	c-0.3-0.1-0.5-0.2-0.5-0.5c0-0.5,0.5-0.5,0.8-0.5h4.2L475.3,118.6z M474.3,113.2c0-2.4-1.4-1.7-1.4-2.5c0-0.5,0.5-0.5,0.7-0.5h2.2
	c0.2,0,0.7,0,0.7,0.5c0,0.8-1.4,0.1-1.4,2.5v4h0l-0.9-1.7V113.2z"/>
<path id="XMLID_51_" class="st0" d="M477.6,110.2h2.4v1c-0.9,0.6-1.1,1.7-1.2,2.6c0,0.4-0.1,0.8-0.6,0.8c-0.5,0-0.5-0.4-0.5-0.5
	V110.2z M480.7,110.2h4v10.5c0,0.6,0,0.7,0.6,0.9c0.2,0.1,0.4,0.2,0.4,0.4c0,0.5-0.5,0.5-0.6,0.5h-4.7c-0.1,0-0.6,0-0.6-0.5
	c0-0.2,0.1-0.4,0.4-0.4c0.6-0.2,0.6-0.3,0.6-0.9V110.2z M487.8,114.1c0,0.1,0,0.5-0.5,0.5c-0.5,0-0.5-0.4-0.6-0.8
	c-0.1-0.9-0.4-2-1.2-2.6v-1h2.4V114.1z"/>
<path id="XMLID_48_" class="st0" d="M492,114.4l-1.5,5.6c-0.3,1,0,1.3,0.5,1.5c0.3,0.1,0.5,0.2,0.5,0.5c0,0.5-0.5,0.4-0.9,0.4h-1.9
	c-0.3,0-0.9,0-0.9-0.5c0-0.4,0.3-0.4,0.6-0.6c0.3-0.2,0.8-0.6,1.1-1.7l2-7.2h0L492,114.4z M493.7,119.4h-2.4l0.2-1h2l-1.7-7.3
	l0.2-0.9h3.6l2.5,10.4c0.1,0.5,0.1,0.8,0.6,1c0.2,0.1,0.4,0.2,0.4,0.5c0,0.4-0.6,0.4-0.9,0.4h-4.1c-0.3,0-0.8,0-0.8-0.5
	c0-0.3,0.1-0.3,0.3-0.5c0.4-0.2,0.5-0.4,0.3-1L493.7,119.4z"/>
<path id="XMLID_45_" class="st0" d="M505,122.6h-4.3c-0.1,0-0.6,0-0.6-0.5c0-0.2,0.1-0.4,0.4-0.4c0.6-0.2,0.6-0.3,0.6-0.9v-8.6
	c0-0.6,0-0.7-0.6-0.9c-0.2-0.1-0.4-0.2-0.4-0.4c0-0.5,0.5-0.5,0.6-0.5h4.7c0.1,0,0.6,0,0.6,0.5c0,0.2-0.2,0.4-0.4,0.4
	c-0.6,0.2-0.6,0.3-0.6,0.9V122.6z M505.7,121.6c1.3-0.2,2.1-1.3,2.4-2.9c0.1-0.4,0.3-0.5,0.6-0.5c0.4,0,0.4,0.3,0.4,0.6v3.7h-3.5
	V121.6z"/>
<line id="XMLID_44_" class="st1" x1="382.9" y1="99.3" x2="518.8" y2="99.3"/>
</svg>
