<?xml version="1.0" encoding="utf-8"?>
<!-- Generator: Adobe Illustrator 16.0.0, SVG Export Plug-In . SVG Version: 6.00 Build 0)  -->
<!DOCTYPE svg PUBLIC "-//W3C//DTD SVG 1.1//EN" "http://www.w3.org/Graphics/SVG/1.1/DTD/svg11.dtd">
<svg version="1.1" id="Layer_1" xmlns="http://www.w3.org/2000/svg" xmlns:xlink="http://www.w3.org/1999/xlink" x="0px" y="0px"
	 width="889.455px" height="792px" viewBox="0 0 889.455 792" enable-background="new 0 0 889.455 792" xml:space="preserve">
<g>
	<path fill="#FFFFFF" stroke="#939598" stroke-miterlimit="10" d="M263.519,292.904H199.08c-15.908,0-28.803,12.895-28.803,28.803
		h122.044C292.321,305.799,279.427,292.904,263.519,292.904z"/>
	<rect x="212.533" y="264.975" fill="#FFFFFF" stroke="#939598" stroke-miterlimit="10" width="37.532" height="21.824"/>
	<path fill="#FFFFFF" stroke="#939598" stroke-miterlimit="10" d="M333.354,108.744h-204.11c-2.993,0-5.439,2.45-5.439,5.441
		v138.368c0,2.991,2.446,5.442,5.439,5.442h204.11c2.993,0,5.441-2.451,5.441-5.442V114.186
		C338.796,111.194,336.348,108.744,333.354,108.744z M317.911,231.607c0,2.991-2.499,5.442-5.554,5.442H150.242
		c-3.055,0-5.552-2.451-5.552-5.442v-96.476c0-2.991,2.497-5.441,5.552-5.441h162.115c3.055,0,5.554,2.45,5.554,5.441V231.607z"/>
</g>
<g>
	<path fill="#FFFFFF" stroke="#939598" stroke-miterlimit="10" d="M633.892,292.904h-64.443c-15.903,0-28.799,12.895-28.799,28.803
		h122.04C662.689,305.799,649.8,292.904,633.892,292.904z"/>
	<rect x="582.906" y="264.975" fill="#FFFFFF" stroke="#939598" stroke-miterlimit="10" width="37.527" height="21.824"/>
	<path fill="#FFFFFF" stroke="#939598" stroke-miterlimit="10" d="M703.723,108.744H499.617c-2.995,0-5.444,2.45-5.444,5.441
		v138.368c0,2.991,2.449,5.442,5.444,5.442h204.105c2.991,0,5.441-2.451,5.441-5.442V114.186
		C709.164,111.194,706.714,108.744,703.723,108.744z M688.28,231.607c0,2.991-2.5,5.442-5.557,5.442H520.612
		c-3.058,0-5.557-2.451-5.557-5.442v-96.476c0-2.991,2.499-5.441,5.557-5.441h162.111c3.057,0,5.557,2.45,5.557,5.441V231.607z"/>
</g>
<g>
	<path fill="#FFFFFF" stroke="#939598" stroke-miterlimit="10" d="M442.685,505.868h-64.438c-15.908,0-28.803,12.898-28.803,28.807
		h122.043C471.487,518.767,458.593,505.868,442.685,505.868z"/>
	<rect x="391.7" y="477.942" fill="#FFFFFF" stroke="#939598" stroke-miterlimit="10" width="37.532" height="21.819"/>
	<path fill="#FFFFFF" stroke="#939598" stroke-miterlimit="10" d="M512.521,321.707H308.411c-2.991,0-5.439,2.451-5.439,5.441
		v138.373c0,2.991,2.448,5.438,5.439,5.438h204.109c2.996,0,5.441-2.446,5.441-5.438V327.148
		C517.962,324.158,515.517,321.707,512.521,321.707z M497.078,444.571c0,2.995-2.499,5.441-5.552,5.441H329.408
		c-3.056,0-5.552-2.446-5.552-5.441V348.1c0-2.996,2.497-5.441,5.552-5.441h162.118c3.053,0,5.552,2.446,5.552,5.441V444.571z"/>
</g>
</svg>
