<?xml version="1.0" encoding="utf-8"?>
<!-- Generator: Adobe Illustrator 16.0.0, SVG Export Plug-In . SVG Version: 6.00 Build 0)  -->
<!DOCTYPE svg PUBLIC "-//W3C//DTD SVG 1.1//EN" "http://www.w3.org/Graphics/SVG/1.1/DTD/svg11.dtd">
<svg version="1.1" id="Layer_1" xmlns="http://www.w3.org/2000/svg" xmlns:xlink="http://www.w3.org/1999/xlink" x="0px" y="0px"
	 width="889.455px" height="792px" viewBox="0 0 889.455 792" enable-background="new 0 0 889.455 792" xml:space="preserve">
<path fill="#FFFFFF" stroke="#808285" stroke-miterlimit="10" d="M415.64,106.182c-128.319,0-232.333,104.021-232.333,232.33
	c0,128.322,104.015,232.331,232.333,232.331c128.307,0,232.34-104.009,232.34-232.331
	C647.979,210.202,543.946,106.182,415.64,106.182z M415.64,536.603c-109.41,0-198.105-88.687-198.105-198.091
	c0-109.403,88.696-198.102,198.105-198.102c109.413,0,198.1,88.699,198.1,198.102C613.739,447.916,525.053,536.603,415.64,536.603z"
	/>
<path fill="#FFFFFF" stroke="#808285" stroke-miterlimit="10" d="M415.64,152.682c-102.472,0-185.824,83.365-185.824,185.83
	c0,102.466,83.353,185.831,185.824,185.831c102.459,0,185.815-83.365,185.815-185.831
	C601.455,236.047,518.099,152.682,415.64,152.682z M415.64,513.273c-96.372,0-174.764-78.396-174.764-174.762
	c0-96.366,78.392-174.749,174.764-174.749c96.36,0,174.758,78.383,174.758,174.749C590.397,434.878,512,513.273,415.64,513.273z"/>
<path fill="#FFFFFF" stroke="#808285" stroke-miterlimit="10" d="M437.802,303.542l-140.897-40.291l95.333,108.82l1.23,1.41
	l140.904,40.279l-95.34-108.821L437.802,303.542z M501.289,392.801l-101.646-29.064l0.565-0.887l-1.752,0.316l7.515-10.79
	c3.548,2.479,8.038,3.596,12.634,2.77c9.186-1.64,15.307-10.425,13.669-19.598c-0.82-4.605-3.426-8.421-6.98-10.899l7.224-10.352
	L501.289,392.801z"/>
</svg>
