<?xml version="1.0" encoding="utf-8"?>
<!-- Generator: Adobe Illustrator 16.0.0, SVG Export Plug-In . SVG Version: 6.00 Build 0)  -->
<!DOCTYPE svg PUBLIC "-//W3C//DTD SVG 1.1//EN" "http://www.w3.org/Graphics/SVG/1.1/DTD/svg11.dtd">
<svg version="1.1" id="Layer_1" xmlns="http://www.w3.org/2000/svg" xmlns:xlink="http://www.w3.org/1999/xlink" x="0px" y="0px"
	 width="889.455px" height="792px" viewBox="0 0 889.455 792" enable-background="new 0 0 889.455 792" xml:space="preserve">
<g>
	<path fill="#FFFFFF" stroke="#808285" stroke-miterlimit="10" d="M415.639,97.81c-129.977,0-235.336,105.365-235.336,235.333
		c0,129.98,105.359,235.346,235.336,235.346c129.966,0,235.343-105.365,235.343-235.346
		C650.981,203.175,545.604,97.81,415.639,97.81z M415.639,533.806c-110.823,0-200.666-89.846-200.666-200.663
		s89.843-200.65,200.666-200.65c110.827,0,200.66,89.833,200.66,200.65S526.466,533.806,415.639,533.806z"/>
	<path fill="#FFFFFF" stroke="#808285" stroke-miterlimit="10" d="M415.639,436.625c-5.095,0-9.215,3.434-9.215,7.68v33.674
		c0,4.246,4.12,7.68,9.215,7.68c5.083,0,9.216-3.434,9.216-7.68v-33.674C424.854,440.059,420.722,436.625,415.639,436.625z"/>
	<path fill="#FFFFFF" stroke="#808285" stroke-miterlimit="10" d="M415.639,229.673c5.083,0,9.216-3.434,9.216-7.68v-33.686
		c0-4.234-4.133-7.68-9.216-7.68c-5.095,0-9.215,3.446-9.215,7.68v33.686C406.424,226.239,410.543,229.673,415.639,229.673z"/>
	<path fill="#FFFFFF" stroke="#808285" stroke-miterlimit="10" d="M560.478,323.937h-33.683c-4.243,0-7.68,4.123-7.68,9.206
		c0,5.095,3.437,9.218,7.68,9.218h33.683c4.24,0,7.662-4.123,7.662-9.218C568.14,328.06,564.718,323.937,560.478,323.937z"/>
	<path fill="#FFFFFF" stroke="#808285" stroke-miterlimit="10" d="M304.477,323.937h-33.673c-4.237,0-7.686,4.123-7.686,9.206
		c0,5.095,3.449,9.218,7.686,9.218h33.673c4.246,0,7.677-4.123,7.677-9.218C312.153,328.06,308.723,323.937,304.477,323.937z"/>
	<path fill="#FFFFFF" stroke="#808285" stroke-miterlimit="10" d="M415.639,144.923c-103.796,0-188.226,84.442-188.226,188.22
		c0,103.79,84.43,188.232,188.226,188.232c103.784,0,188.217-84.442,188.217-188.232
		C603.855,229.365,519.423,144.923,415.639,144.923z M415.639,510.163c-97.617,0-177.023-79.409-177.023-177.021
		c0-97.599,79.406-177.008,177.023-177.008c97.605,0,177.017,79.409,177.017,177.008
		C592.655,430.754,513.244,510.163,415.639,510.163z"/>
	<path fill="#FFFFFF" stroke="#808285" stroke-miterlimit="10" d="M384.71,304.811l-65.252,133.341l125.482-75.705l1.621-0.972
		l65.252-133.328l-125.482,75.692L384.71,304.811z M485.017,257.402l-47.07,96.184l-0.787-0.726v1.809l-9.422-9.415
		c3.102-3.102,5.019-7.373,5.019-12.111c0-9.452-7.671-17.12-17.117-17.12c-4.729,0-9.009,1.92-12.107,5.021l-9.04-9.046
		L485.017,257.402z"/>
</g>
</svg>
