<?xml version="1.0" encoding="utf-8"?>
<!-- Generator: Adobe Illustrator 16.0.0, SVG Export Plug-In . SVG Version: 6.00 Build 0)  -->
<!DOCTYPE svg PUBLIC "-//W3C//DTD SVG 1.1//EN" "http://www.w3.org/Graphics/SVG/1.1/DTD/svg11.dtd">
<svg version="1.1" id="Layer_1" xmlns="http://www.w3.org/2000/svg" xmlns:xlink="http://www.w3.org/1999/xlink" x="0px" y="0px"
	 width="889.455px" height="792px" viewBox="0 0 889.455 792" enable-background="new 0 0 889.455 792" xml:space="preserve">
<path fill="#FFFFFF" stroke="#808285" stroke-miterlimit="10" d="M574.274,87.42H258.188c-12.159,0-22.662,7.586-27.407,18.414
	c-1.718,3.913-2.691,8.267-2.691,12.824V524.73c0,17.169,13.542,31.238,30.099,31.238h316.087c4.397,0,8.584-1.025,12.355-2.809
	c10.43-4.92,17.742-15.826,17.742-28.43V118.658C604.372,101.48,590.833,87.42,574.274,87.42z M538.616,493.493H293.839
	c-8.315,0-15.052-6.986-15.052-15.614c0-8.629,6.736-15.624,15.052-15.624h244.777c8.314,0,15.053,6.995,15.053,15.624
	C553.669,486.507,546.931,493.493,538.616,493.493z M538.616,415.403H293.839c-8.315,0-15.052-6.986-15.052-15.614
	c0-8.638,6.736-15.624,15.052-15.624h244.777c8.314,0,15.053,6.986,15.053,15.624C553.669,408.417,546.931,415.403,538.616,415.403z
	 M538.616,337.313H293.839c-8.315,0-15.052-6.986-15.052-15.624c0-8.62,6.736-15.624,15.052-15.624h244.777
	c8.314,0,15.053,7.004,15.053,15.624C553.669,330.327,546.931,337.313,538.616,337.313z M538.616,259.232H293.839
	c-8.315,0-15.052-6.995-15.052-15.632c0-8.628,6.736-15.615,15.052-15.615h244.777c8.314,0,15.053,6.986,15.053,15.615
	C553.669,252.237,546.931,259.232,538.616,259.232z M538.616,181.125H293.839c-8.315,0-15.052-6.977-15.052-15.614
	s6.736-15.624,15.052-15.624h244.777c8.314,0,15.053,6.986,15.053,15.624S546.931,181.125,538.616,181.125z"/>
</svg>
