<?xml version="1.0" encoding="utf-8"?>
<!-- Generator: Adobe Illustrator 21.1.0, SVG Export Plug-In . SVG Version: 6.00 Build 0)  -->
<svg version="1.1" id="Layer_1" xmlns="http://www.w3.org/2000/svg" xmlns:xlink="http://www.w3.org/1999/xlink" x="0px" y="0px"
	 viewBox="0 0 889.5 792" style="enable-background:new 0 0 889.5 792;" xml:space="preserve">
<style type="text/css">
	.st0{fill:#FFFFFF;stroke:#A7A9AC;stroke-miterlimit:10;}
</style>
<g>
	<path class="st0" d="M308.3,193.9h15c7.4,0,13.6-3.3,13.6-7.3v-40.9c0-4.9,4.1-9,9-9h130.8c4.8,0,9,4.1,9,9V187
		c0,3.7,6.3,6.9,13.6,6.9h15c7.2,0,13.6-3.2,13.6-6.9v-41.3c0-28.2-22.9-51.1-51.1-51.1H345.8c-28.2,0-51.1,22.9-51.1,51.1v40.2
		C294.7,190.3,301,193.9,308.3,193.9z"/>
	<path class="st0" d="M390.6,483.8h41.4c7.5,0,13.6-6.1,13.6-13.6v-15.4c0-7.5-6.1-13.6-13.6-13.6h-41.4c-7.5,0-13.6,6.1-13.6,13.6
		v15.4C377,477.7,383.1,483.8,390.6,483.8z"/>
	<path class="st0" d="M377,541.2c0,7.5,6.1,13.6,13.6,13.6h41.4c7.5,0,13.6-6.1,13.6-13.6v-20.4c0-7.5-6.1-13.6-13.6-13.6h-41.4
		c-7.5,0-13.6,6.1-13.6,13.6V541.2z"/>
	<path class="st0" d="M689.1,459.6c-3.7,1.3-6.9,2.5-9.9,3.5c-66.4,22.9-137.8,36.8-212.3,41.5v26.3c0,23.1-18.8,41.8-41.9,41.8
		h-27.6c-23.1,0-41.8-18.8-41.8-41.8v-26.4c-80.5-5-157.1-20.8-227.6-46.9c-2-0.6-5.7-2-14.6-5.6l-1.1-0.4c-0.5-0.2-1-0.4-1.5-0.6
		v171.6c0,18.9,15.4,34.3,34.2,34.3h532.5c18.9,0,34.2-15.4,34.2-34.3V450.8c-2.4,1-5,2-7.6,3.1L689.1,459.6z"/>
	<path class="st0" d="M690.9,219.7H131.6c-18.3,0-33.2,14.9-33.2,33.2v148.4c0,3.5,3.5,8.9,6.7,10.3c0.1,0,6.1,2.7,15.9,6.6
		c70.9,28.2,151.9,45.9,234.7,51.3v-25c0-16.6,25-27.8,41.7-27.8h27.6c19.5,0,41.7,12.8,41.3,32.2v20.6
		c71.9-4.6,141.3-18.1,205.2-40.1c20.2-7,45.7-17.8,46-17.9c3.2-1.3,6.6-6.6,6.6-10V252.9C724.2,234.6,709.2,219.7,690.9,219.7z"/>
</g>
</svg>
