<?xml version="1.0" encoding="utf-8"?>
<!-- Generator: Adobe Illustrator 16.0.0, SVG Export Plug-In . SVG Version: 6.00 Build 0)  -->
<!DOCTYPE svg PUBLIC "-//W3C//DTD SVG 1.1//EN" "http://www.w3.org/Graphics/SVG/1.1/DTD/svg11.dtd">
<svg version="1.1" id="Layer_1" xmlns="http://www.w3.org/2000/svg" xmlns:xlink="http://www.w3.org/1999/xlink" x="0px" y="0px"
	 width="889.455px" height="792px" viewBox="0 0 889.455 792" enable-background="new 0 0 889.455 792" xml:space="preserve">
<g>
	<path fill="#FFFFFF" stroke="#808285" stroke-miterlimit="10" d="M416.557,77.917c-73.606,0-139.925,31.785-185.965,82.359
		c-40.682,44.692-65.523,104.068-65.523,169.14c0,138.672,112.817,251.479,251.489,251.479c65.083,0,124.467-24.843,169.167-65.553
		c50.553-46.03,82.326-112.33,82.326-185.926C668.05,190.737,555.232,77.917,416.557,77.917z M561.775,491.427
		c-34.63,31.07-79.236,51.238-128.418,55.021V513.71c0-9.237-7.562-16.796-16.8-16.796c-9.234,0-16.796,7.559-16.796,16.796v32.738
		c-5.667-0.429-11.257-1.133-16.796-1.99c-93.229-14.505-166.948-88.218-181.457-181.457c-0.865-5.532-1.562-11.122-1.994-16.789
		h32.745c9.233,0,16.792-7.565,16.792-16.796c0-9.237-7.559-16.796-16.792-16.796h-32.745
		c3.775-49.196,23.955-93.804,55.036-128.437c36.356-40.527,87.653-67.4,145.211-71.821V145.1c0,9.23,7.562,16.796,16.796,16.796
		c9.238,0,16.8-7.566,16.8-16.796v-13.948v-18.79c106.74,8.204,192.042,93.496,200.244,200.258h-18.787h-13.947
		c-9.238,0-16.8,7.559-16.8,16.796c0,9.23,7.562,16.796,16.8,16.796h32.734C629.183,403.77,602.31,455.063,561.775,491.427z"/>
	<path fill="#FFFFFF" stroke="#808285" stroke-miterlimit="10" d="M593.183,248.904c-1.986-4.197-7.027-5.957-11.195-3.948
		L436.843,314.57c-4.582-6.272-11.932-10.366-20.286-10.366c-9.794,0-18.182,5.638-22.353,13.79l-79.16-22.724
		c-4.472-1.275-9.109,1.302-10.399,5.77c-1.272,4.446,1.301,9.094,5.77,10.399l69.196,19.853l12.379,3.545
		c2.485,11.312,12.533,19.75,24.567,19.75c2.507,0,4.879-0.473,7.159-1.151c6.536-1.954,11.914-6.448,15.014-12.397
		c1.599-3.072,2.65-6.462,2.87-10.117l134.958-64.739l12.684-6.081C593.421,258.094,595.191,253.064,593.183,248.904z"/>
</g>
</svg>
