<?xml version="1.0" encoding="utf-8"?>
<!-- Generator: Adobe Illustrator 16.0.0, SVG Export Plug-In . SVG Version: 6.00 Build 0)  -->
<!DOCTYPE svg PUBLIC "-//W3C//DTD SVG 1.1//EN" "http://www.w3.org/Graphics/SVG/1.1/DTD/svg11.dtd">
<svg version="1.1" id="Layer_1" xmlns="http://www.w3.org/2000/svg" xmlns:xlink="http://www.w3.org/1999/xlink" x="0px" y="0px"
	 width="889.455px" height="792px" viewBox="0 0 889.455 792" enable-background="new 0 0 889.455 792" xml:space="preserve">
<g>
	<rect x="110.643" y="312.759" fill="#FFFFFF" stroke="#808285" stroke-miterlimit="10" width="69.736" height="107.284"/>
	<rect x="652.443" y="312.759" fill="#FFFFFF" stroke="#808285" stroke-miterlimit="10" width="69.736" height="107.284"/>
	<path fill="#FFFFFF" stroke="#808285" stroke-miterlimit="10" d="M597.401,132.37H235.429c-21.505,0-39.104,17.591-39.104,39.087
		v73.346v16.676v216.548v12.489v77.517c0,21.489,17.599,39.08,39.104,39.08h361.973c21.505,0,39.096-17.591,39.096-39.08v-77.517
		v-12.489V261.479v-16.676v-73.346C636.497,149.96,618.906,132.37,597.401,132.37z M405.39,477.683c0,2.784-2.262,5.038-5.037,5.038
		H264.834c-2.774,0-5.037-2.254-5.037-5.038v-17.638c0-1.364,0.569-2.656,1.54-3.61l22.523-21.89
		c52.7-50.141,77.493-77.068,77.493-107.428c0-16.62-6.369-36.448-36.77-36.448c-18.842,0-34.307,10.54-41.838,16.82
		c-1.22,0.995-2.824,1.388-4.355,1.035c-1.54-0.361-2.815-1.412-3.457-2.839l-9.161-20.253c-0.922-2.054-0.368-4.476,1.348-5.936
		c17.229-14.438,40.203-22.732,63.031-22.732c48.376,0,70.025,33.545,70.025,66.776c0,42.336-30.962,75.439-74.702,117.6
		l-8.134,7.676h83.012c2.775,0,5.037,2.254,5.037,5.037V477.683z M573.018,477.683c0,2.784-2.246,5.038-5.029,5.038H432.478
		c-2.783,0-5.045-2.254-5.045-5.038v-17.638c0-1.364,0.562-2.656,1.54-3.61l22.516-21.89
		c52.707-50.141,77.509-77.068,77.509-107.428c0-16.62-6.377-36.448-36.777-36.448c-17.896,0-32.63,9.144-41.839,16.82
		c-1.203,0.995-2.815,1.388-4.355,1.035c-1.523-0.361-2.815-1.412-3.457-2.839l-9.152-20.253c-0.931-2.054-0.369-4.476,1.355-5.936
		c17.222-14.438,40.187-22.732,63.015-22.732c48.376,0,70.01,33.545,70.01,66.776c0,42.352-30.946,75.464-74.686,117.6l-8.149,7.676
		h83.027c2.783,0,5.029,2.254,5.029,5.037V477.683z"/>
</g>
</svg>
