<?xml version="1.0" encoding="utf-8"?>
<!-- Generator: Adobe Illustrator 16.0.0, SVG Export Plug-In . SVG Version: 6.00 Build 0)  -->
<!DOCTYPE svg PUBLIC "-//W3C//DTD SVG 1.1//EN" "http://www.w3.org/Graphics/SVG/1.1/DTD/svg11.dtd">
<svg version="1.1" id="Layer_1" xmlns="http://www.w3.org/2000/svg" xmlns:xlink="http://www.w3.org/1999/xlink" x="0px" y="0px"
	 width="889.455px" height="792px" viewBox="0 0 889.455 792" enable-background="new 0 0 889.455 792" xml:space="preserve">
<g>
	<path fill="#FFFFFF" stroke="#939598" stroke-miterlimit="10" d="M642.085,165.534h-394.73c-21.395,0-38.9,17.509-38.9,38.907
		v73.018v16.586v215.533v12.438v77.159c0,21.405,17.506,38.907,38.9,38.907h394.73c21.406,0,38.916-17.502,38.916-38.907v-77.159
		v-12.438V294.046v-16.586v-73.018C681.001,183.043,663.491,165.534,642.085,165.534z M444.726,550.492
		c-82.112,0-148.684-66.575-148.684-148.677c0-82.115,66.572-148.69,148.684-148.69c82.104,0,148.676,66.575,148.676,148.69
		C593.401,483.917,526.829,550.492,444.726,550.492z"/>
	<path fill="#FFFFFF" stroke="#939598" stroke-miterlimit="10" d="M526.437,389.284L412.57,323.546
		c-11.933-6.904-21.698-1.263-21.698,12.518v131.49c0,13.773,9.765,19.415,21.698,12.518l113.866-65.731
		C538.366,407.45,538.366,396.181,526.437,389.284z"/>
</g>
</svg>
