<?xml version="1.0" encoding="utf-8"?>
<!-- Generator: Adobe Illustrator 16.0.0, SVG Export Plug-In . SVG Version: 6.00 Build 0)  -->
<!DOCTYPE svg PUBLIC "-//W3C//DTD SVG 1.1//EN" "http://www.w3.org/Graphics/SVG/1.1/DTD/svg11.dtd">
<svg version="1.1" id="Layer_1" xmlns="http://www.w3.org/2000/svg" xmlns:xlink="http://www.w3.org/1999/xlink" x="0px" y="0px"
	 width="889.455px" height="792px" viewBox="0 0 889.455 792" enable-background="new 0 0 889.455 792" xml:space="preserve">
<g>
	<path fill="#FFFFFF" stroke="#808285" stroke-miterlimit="10" d="M439.768,400.037c-0.26-6.537-2.012-19.574,8.146-32.23
		c26.779-33.374,52.549-59.477,54.154-152.468c-6.72,62.187-23.769,106.664-60.186,128.292c-2.134,1.256-6.572,3.974-7.172-4.687
		c-4.119-58.919-6.307-122.928-11.18-184.889c-5.643,71.815-7.496,147.125-13.188,212.573c-0.729,8.393-3.001,13.306-11.927,8.089
		c-20.245-11.809-48.771-52.968-63.906-114.175c3.7,57.168,25.312,113.899,58.976,139.198c12.855,9.664,10.902,22.977,10.429,29.075
		c-6.084,78.26-22.342,111.521-49.338,135.132c32.564-17.237,67.042-7.658,68.955,21.07c5.748-34.475,38.312-38.308,68.966-21.07
		C461.462,536.807,443.461,495.661,439.768,400.037z"/>
	<path fill="#FFFFFF" stroke="#808285" stroke-miterlimit="10" d="M472.322,189.01c-7.355,26.971-1.147,54.514,14.587,74.13
		c2.008-15.077,4.016-52.27,32.166-79.417c-14.074,31.164-16.083,69.373-14.074,88.46c34.305-11.308,47.392-28.454,55.185-49.065
		c15.91-42.035,1.778-84.203-10.087-109.248C503.963,129.688,480.235,160.005,472.322,189.01z"/>
	<path fill="#FFFFFF" stroke="#808285" stroke-miterlimit="10" d="M414.396,208.894c-0.879-29.188,6.296-70.417,9.167-83.476
		c2.061,16.221,10.048,52.276,8.515,80.772c21.024-19.616,29.989-44.314,29.693-62.201c-0.692-41.52-23.725-67.234-40.87-85.693
		c-28.996,23.731-42.028,58.729-41.77,88.333C379.368,174.208,391.159,196.287,414.396,208.894z"/>
	<path fill="#FFFFFF" stroke="#808285" stroke-miterlimit="10" d="M332.685,303.312c-0.392-15.304-3.702-45.521-21.379-76.396
		c11.504,7.969,33.365,30.959,41.961,67.587c16.096-27.494,16.784-49.7,9.661-68.582c-16.162-42.854-77.808-71.18-101.538-79.093
		c-11.864,35.597-13.189,88.326,9.226,119.97C283.254,284.641,304.291,295.878,332.685,303.312z"/>
	<path fill="#FFFFFF" stroke="#808285" stroke-miterlimit="10" d="M357.265,174.384c-2.793-12.289-8.751-34.983-17.035-48.013
		c9.365,9.36,19.078,30.451,24.27,44.364c9.219-22.616,7.69-39.155-0.083-51.021c-10.745-16.397-31.844-24.296-48.982-28.256
		c-6.583,14.506-10.073,39.183,0.28,56.745C323.738,161.812,337.816,170.996,357.265,174.384z"/>
	<path fill="#FFFFFF" stroke="#808285" stroke-miterlimit="10" d="M248.097,275.677c0,0,14.147,11.985,23.705,25.072
		c2.218-12.479-0.443-21.762-5.137-30c-12.08-21.205-32.963-25.051-43.512-26.364c-1.32,13.179-2.698,31.679,6.372,44.025
		c8.4,11.442,21.841,17.428,37.086,18.685C263.499,299.782,257.301,286.907,248.097,275.677z"/>
	<path fill="#FFFFFF" stroke="#808285" stroke-miterlimit="10" d="M487.177,104.51c-1.955,12.007-3.381,25.955-4.143,36.296
		c13.781-6.762,20.936-14.562,24.225-22.722c7.86-19.503-4.623-33.219-11.205-46.404c-14.506,6.593-30.119,17.16-32.725,34.503
		c-1.592,10.616,1.963,22.044,12.916,33.734C478.097,133.514,481.489,122.164,487.177,104.51z"/>
	<path fill="#FFFFFF" stroke="#808285" stroke-miterlimit="10" d="M465.026,250.95c-28.805,21.338-36.175,48.79-19.715,72.133
		c3.404-6.508,9.563-20.372,13.959-42.367c0.524,17.922-3.704,33.783-7.487,43.842C473.28,314.704,485.018,296.705,465.026,250.95z"
		/>
	<path fill="#FFFFFF" stroke="#808285" stroke-miterlimit="10" d="M396.772,342.621c26.047-39.677,2.513-69.775-16.974-89.631
		c-20.027,32.258-32.975,72.444,9.263,90.761c-4.479-12.953-7.129-31.094-4.435-52.609
		C386.215,315.488,392.733,333.501,396.772,342.621z"/>
	<path fill="#FFFFFF" stroke="#808285" stroke-miterlimit="10" d="M600.198,194.297c-13.18,10.539-31.422,24.006-38.735,46.39
		c-3.105,9.515-2.725,20.478,4.179,34.213c6.166-7.616,17.068-23.146,21.752-42.606c0,0-2.298,30.154-15.363,46.799
		c12.268-0.628,22.453-7.468,29.491-18.021C614.552,241.526,610.747,216.694,600.198,194.297z"/>
	<path fill="#FFFFFF" stroke="#808285" stroke-miterlimit="10" d="M473.851,370.687c12.896-10.842,39.225-29.061,74.533-33.479
		c-22.518,7.426-51.564,31.99-67.263,49.538c23.229,4.25,48.15,2.188,69.352-8.491c29.83-15.035,47.089-44.223,51.049-90.366
		c-26.372,2.633-63.476-0.621-97.559,23.731C488.875,322.391,477.399,344.188,473.851,370.687z"/>
	<path fill="#FFFFFF" stroke="#808285" stroke-miterlimit="10" d="M286.098,347.647c28.861,4.235,61.049,18.268,81.482,32.096
		c-16.844-36.55-37.432-51.176-58.409-57.401c-29.995-8.915-53.055-6.77-72.837-5.457c5.28,30.332,17.864,56.512,42.273,68.399
		c28.385,13.821,61.492,11.979,82.292,6.423C347,381.105,318.862,361.313,286.098,347.647z"/>
</g>
</svg>
