<?xml version="1.0" encoding="utf-8"?>
<!-- Generator: Adobe Illustrator 16.0.0, SVG Export Plug-In . SVG Version: 6.00 Build 0)  -->
<!DOCTYPE svg PUBLIC "-//W3C//DTD SVG 1.1//EN" "http://www.w3.org/Graphics/SVG/1.1/DTD/svg11.dtd">
<svg version="1.1" id="Layer_1" xmlns="http://www.w3.org/2000/svg" xmlns:xlink="http://www.w3.org/1999/xlink" x="0px" y="0px"
	 width="889.455px" height="792px" viewBox="0 0 889.455 792" enable-background="new 0 0 889.455 792" xml:space="preserve">
<path fill="#FFFFFF" stroke="#3B4246" d="M628.132,195.177H261.31c-19.882,0-36.15,16.275-36.15,36.164v67.851v15.412v200.302
	v11.555v71.707c0,19.889,16.269,36.156,36.15,36.156h366.822c19.896,0,36.164-16.268,36.164-36.156v-71.707v-11.555V314.603v-15.412
	V231.34C664.296,211.452,648.027,195.177,628.132,195.177z M444.729,552.914c-76.309,0-138.175-61.863-138.175-138.154
	c0-76.311,61.867-138.181,138.175-138.181c76.298,0,138.165,61.87,138.165,138.181C582.895,491.051,521.027,552.914,444.729,552.914
	z"/>
<path fill="#FFFFFF" stroke="#3B4246" d="M543.245,403.109l-105.814-61.094c-11.087-6.404-20.165-1.16-20.165,11.637v122.196
	c0,12.797,9.078,18.043,20.165,11.631l105.814-61.082C554.336,419.992,554.336,409.516,543.245,403.109z"/>
<path fill="#FFFFFF" stroke="#3B4246" d="M480.512,403.109l-105.817-61.094c-11.087-6.404-20.165-1.16-20.165,11.637v122.196
	c0,12.797,9.078,18.043,20.165,11.631l105.817-61.082C491.599,419.992,491.599,409.516,480.512,403.109z"/>
</svg>
