<?xml version="1.0" encoding="utf-8"?>
<!-- Generator: Adobe Illustrator 16.0.0, SVG Export Plug-In . SVG Version: 6.00 Build 0)  -->
<!DOCTYPE svg PUBLIC "-//W3C//DTD SVG 1.1//EN" "http://www.w3.org/Graphics/SVG/1.1/DTD/svg11.dtd">
<svg version="1.1" id="Layer_1" xmlns="http://www.w3.org/2000/svg" xmlns:xlink="http://www.w3.org/1999/xlink" x="0px" y="0px"
	 width="889.455px" height="792px" viewBox="0 0 889.455 792" enable-background="new 0 0 889.455 792" xml:space="preserve">
<g>
	<polygon fill="#FFFFFF" stroke="#808285" points="133.949,384.864 449.889,531.175 449.889,378.316 133.949,231.999 	"/>
	<polygon fill="#FFFFFF" stroke="#808285" points="466.929,378.316 466.929,531.175 698.854,423.773 698.854,270.892 	"/>
	<polygon fill="#FFFFFF" stroke="#808285" points="248.616,171.017 145.704,218.682 458.405,363.454 564.583,314.297 	"/>
	<polygon fill="#FFFFFF" stroke="#808285" points="393.151,121.473 374.383,112.779 269.061,161.542 288.282,170.274 	"/>
	<polygon fill="#FFFFFF" stroke="#808285" points="478.38,160.934 456.026,150.607 351.797,199.094 374.426,209.357 	"/>
	<polygon fill="#FFFFFF" stroke="#808285" points="563.653,200.427 541.275,190.061 437.952,238.152 460.559,248.392 	"/>
	<polygon fill="#FFFFFF" stroke="#808285" points="648.886,239.903 626.536,229.553 524.104,277.203 546.688,287.458 	"/>
</g>
</svg>
