<?xml version="1.0" encoding="utf-8"?>
<!-- Generator: Adobe Illustrator 16.0.0, SVG Export Plug-In . SVG Version: 6.00 Build 0)  -->
<!DOCTYPE svg PUBLIC "-//W3C//DTD SVG 1.1//EN" "http://www.w3.org/Graphics/SVG/1.1/DTD/svg11.dtd">
<svg version="1.1" id="Layer_1" xmlns="http://www.w3.org/2000/svg" xmlns:xlink="http://www.w3.org/1999/xlink" x="0px" y="0px"
	 width="889.455px" height="792px" viewBox="0 0 889.455 792" enable-background="new 0 0 889.455 792" xml:space="preserve">
<g>
	<polygon fill="#FFFFFF" stroke="#939598" stroke-miterlimit="10" points="533.603,528.489 264.118,528.489 272.904,538.436 
		280.376,546.91 542.053,546.91 560.475,546.91 570.578,546.91 578.881,546.91 578.881,142.494 578.881,107.436 560.475,90.265 
		560.475,125.862 560.475,528.489 542.053,528.489 	"/>
	<polygon fill="#FFFFFF" stroke="#939598" stroke-miterlimit="10" points="588.989,116.328 588.989,151.93 588.989,557.033 
		570.578,557.033 560.475,557.033 288.319,557.033 295.657,565.312 304.612,575.445 570.578,575.445 588.989,575.445 
		607.401,575.445 607.401,133.509 	"/>
	<path fill="#FFFFFF" stroke="#939598" stroke-miterlimit="10" d="M257.754,520.014h275.849h8.45h9.956V117.966V83.968v-5.881
		H249.198c0,0-20.472,9.196-23.466,21.026c-0.226,0.932-0.39,1.864-0.39,2.82v394.245c0,13.154,10.692,23.836,23.856,23.836H257.754
		z"/>
	<path fill="#FFFFFF" stroke="#939598" stroke-miterlimit="10" d="M281.622,565.312l-16.391-18.402l-7.548-8.475l-7.229-8.132
		h-16.398l6.891,8.132l7.188,8.475l15.616,18.402l2.097,2.481c4.632,3.591,9.162,5.983,13.171,7.651
		c8.517,3.492,14.738,3.492,14.738,3.492l-3.114-3.492L281.622,565.312z"/>
</g>
</svg>
