<?xml version="1.0" encoding="utf-8"?>
<!-- Generator: Adobe Illustrator 16.0.0, SVG Export Plug-In . SVG Version: 6.00 Build 0)  -->
<!DOCTYPE svg PUBLIC "-//W3C//DTD SVG 1.1//EN" "http://www.w3.org/Graphics/SVG/1.1/DTD/svg11.dtd">
<svg version="1.1" id="Layer_1" xmlns="http://www.w3.org/2000/svg" xmlns:xlink="http://www.w3.org/1999/xlink" x="0px" y="0px"
	 width="889.455px" height="792px" viewBox="0 0 889.455 792" enable-background="new 0 0 889.455 792" xml:space="preserve">
<g>
	<polygon fill="#FFFFFF" stroke="#939598" points="135.187,474.691 449.742,620.361 449.742,468.173 135.187,322.496 	"/>
	<polygon fill="#FFFFFF" stroke="#939598" points="466.708,468.173 466.708,620.361 697.616,513.43 697.616,361.219 	"/>
	<polygon fill="#FFFFFF" stroke="#939598" points="249.351,261.781 146.89,309.238 458.221,453.375 563.935,404.434 	"/>
	<polygon fill="#FFFFFF" stroke="#939598" points="688.364,330.358 627.036,200.839 321.082,58.531 382.402,188.044 	"/>
	<polygon fill="#FFFFFF" stroke="#939598" points="393.253,212.455 374.567,203.8 269.706,252.348 288.843,261.043 	"/>
	<polygon fill="#FFFFFF" stroke="#939598" points="309.233,270.288 331.725,280.491 435.687,232.115 413.435,221.778 	"/>
	<polygon fill="#FFFFFF" stroke="#939598" points="478.108,251.743 455.853,241.462 352.08,289.735 374.61,299.954 	"/>
	<polygon fill="#FFFFFF" stroke="#939598" points="520.558,271.411 498.282,261.09 394.989,309.167 417.484,319.386 	"/>
	<polygon fill="#FFFFFF" stroke="#939598" points="563.007,291.062 540.728,280.742 437.858,328.623 460.365,338.818 	"/>
	<polygon fill="#FFFFFF" stroke="#939598" points="605.429,310.691 583.192,300.401 480.739,348.055 503.255,358.281 	"/>
	<polygon fill="#FFFFFF" stroke="#939598" points="647.866,330.366 625.614,320.062 523.633,367.502 546.116,377.713 	"/>
	<polygon fill="#FFFFFF" stroke="#939598" points="685.897,347.944 668.037,339.697 566.511,386.934 584.269,395.017 	"/>
</g>
</svg>
