<?xml version="1.0" encoding="utf-8"?>
<!-- Generator: Adobe Illustrator 16.0.0, SVG Export Plug-In . SVG Version: 6.00 Build 0)  -->
<!DOCTYPE svg PUBLIC "-//W3C//DTD SVG 1.1//EN" "http://www.w3.org/Graphics/SVG/1.1/DTD/svg11.dtd">
<svg version="1.1" id="Layer_1" xmlns="http://www.w3.org/2000/svg" xmlns:xlink="http://www.w3.org/1999/xlink" x="0px" y="0px"
	 width="889.455px" height="792px" viewBox="0 0 889.455 792" enable-background="new 0 0 889.455 792" xml:space="preserve">
<g>
	<path fill="#FFFFFF" stroke="#808285" d="M317.225,286.71c23.576,56.057,68.501,86.56,98.467,86.56
		c29.438,0,70.693-29.482,94.603-84.816c5.797-13.44,10.822-30.605,14.319-47.383c3.902-13.418,6.063-30.441,6.063-52.187
		c0-57.491-51.482-105.975-114.985-105.975c-63.468,0-114.953,48.484-114.953,105.975c0,15.163,0.937,28.035,2.672,38.981
		C305.737,247.822,310.231,270.26,317.225,286.71z"/>
	<path fill="#FFFFFF" stroke="#808285" d="M618.99,450.509c-22.983-24.568-87.603-18.416-119.544-35.297
		c-14.202,26.566-14.391,70.221-37.967,70.221c-1.006,0-2.061-0.075-3.154-0.248c-35.525-5.327-17.764-95.93-42.634-95.93
		s-7.104,90.603-42.63,95.93c-1.097,0.173-2.148,0.248-3.16,0.248c-23.572,0-23.763-43.654-37.963-70.221
		c-31.926,16.881-96.542,10.729-119.439,35.297c-12.453,13.312-18.918,95.753-18.918,132.382h444.217
		C637.798,546.262,631.374,463.82,618.99,450.509z"/>
</g>
</svg>
