<?xml version="1.0" encoding="utf-8"?>
<!-- Generator: Adobe Illustrator 16.0.0, SVG Export Plug-In . SVG Version: 6.00 Build 0)  -->
<!DOCTYPE svg PUBLIC "-//W3C//DTD SVG 1.1//EN" "http://www.w3.org/Graphics/SVG/1.1/DTD/svg11.dtd">
<svg version="1.1" id="Layer_1" xmlns="http://www.w3.org/2000/svg" xmlns:xlink="http://www.w3.org/1999/xlink" x="0px" y="0px"
	 width="889.455px" height="792px" viewBox="0 0 889.455 792" enable-background="new 0 0 889.455 792" xml:space="preserve">
<g>
	<path fill="#FFFFFF" stroke="#BCBEC0" stroke-miterlimit="10" d="M676.92,215.009H304.964c-20.169,0-36.662,16.508-36.662,36.662
		v68.807v15.625v203.108v11.713v72.711c0,20.188,16.493,36.673,36.662,36.673H676.92c20.157,0,36.665-16.485,36.665-36.673v-72.711
		v-11.713V336.103v-15.625v-68.807C713.585,231.518,697.077,215.009,676.92,215.009z M675.835,340.34v12.964v68.973v9.727v60.4
		c0,16.733-13.695,30.438-30.437,30.438H336.47c-16.756,0-30.441-13.704-30.441-30.438v-60.4v-9.727v-68.973V340.34v-57.132
		c0-16.756,13.685-30.468,30.441-30.468h308.929c16.741,0,30.437,13.712,30.437,30.468V340.34z"/>
	<path fill="#FFFFFF" stroke="#BCBEC0" stroke-miterlimit="10" d="M253.208,538.358v-11.713v-45.098l-8.258,1.801
		c-16.361,3.571-32.66-6.913-36.239-23.271l-12.844-59.012l-2.076-9.497l-14.691-67.389l-2.758-12.682l-12.17-55.823
		c-3.563-16.361,6.895-32.684,23.271-36.231l301.837-65.801c16.35-3.56,32.648,6.922,36.228,23.275l5.562,25.506h38.622
		l-14.018-64.337c-4.304-19.719-23.938-32.308-43.646-28.004l-363.423,79.187c-19.7,4.304-32.308,23.949-28.016,43.63l14.653,67.227
		l3.323,15.288l43.266,198.448l2.475,11.442l15.501,71.037c4.284,19.708,23.902,32.296,43.622,28.021l11.411-2.494
		c-1.058-3.425-1.631-7.035-1.631-10.8V538.358z"/>
</g>
</svg>
